<svg width="328" height="72" viewBox="0 0 328 72" fill="none" xmlns="http://www.w3.org/2000/svg">
<path fill-rule="evenodd" clip-rule="evenodd" d="M72 34.5319C71.2255 15.3559 55.3711 0 35.9959 0C16.6207 0 0.766325 15.3559 0 34.5319V37.4681C0.682457 54.3915 13.0982 68.3278 29.3127 71.3789C30.1794 71.5432 31.0542 71.678 31.9439 71.77C32.8336 71.862 33.7857 71.9458 34.7214 71.977C35.1441 71.9918 35.5667 72 35.9959 72C36.4251 72 36.8395 72 37.2621 71.977C38.1896 71.9458 39.1122 71.8768 40.0249 71.7765C40.9375 71.6763 41.8042 71.5465 42.6724 71.3789C58.8935 68.3344 71.3175 54.3882 72 37.4746V34.5319ZM64.2907 46.3438C64.7597 46.5508 65.2422 46.7262 65.7245 46.9014C66.0117 47.0058 66.2989 47.1102 66.5831 47.2212C66.6626 47.2523 66.7554 47.2777 66.8483 47.3033C66.9226 47.3236 66.997 47.3441 67.0649 47.3674C67.8317 45.2732 68.3827 43.1063 68.7094 40.9004C68.5905 40.936 68.4641 40.9611 68.344 40.9849C68.3354 40.9866 68.3269 40.9883 68.3184 40.99C68.2977 40.9941 68.2773 40.9981 68.2572 41.0023C65.5208 41.5658 62.758 41.8764 59.9624 41.6381C59.792 41.6231 59.6195 41.6151 59.3619 41.6032L59.3613 41.6031C59.2239 41.5968 59.0623 41.5893 58.8639 41.579C60.3785 43.8447 62.0953 45.3777 64.2907 46.3438ZM61.6497 56.8626C63.7162 54.3291 65.3963 51.5043 66.6357 48.4798L66.6324 48.4831C66.5837 48.4679 66.5353 48.452 66.4869 48.4361C66.4095 48.4107 66.3321 48.3854 66.2542 48.3631C63.3155 47.4972 60.6367 46.1401 58.8195 43.6032C56.8856 40.9185 54.2495 39.8538 51.0905 39.719C47.4496 39.5679 44.8284 41.855 44.4995 45.4697C44.2183 48.6474 46.5583 51.2762 50.1005 51.7314C50.8584 51.8287 51.6208 51.8868 52.3847 51.9055C56.2953 51.9926 59.1731 54.0037 61.6135 56.8232L61.6497 56.8626ZM67.4678 39.8998C67.6155 39.8678 67.7671 39.8469 67.9183 39.8261C67.937 39.8235 67.9557 39.8209 67.9744 39.8183C67.9851 39.8168 67.9958 39.8153 68.0065 39.8138C68.043 39.8087 68.0795 39.8034 68.1158 39.7979C68.3617 39.7402 68.6166 39.7324 68.8656 39.7749C69.0112 38.5205 69.0853 37.2587 69.0876 35.9959C69.0876 35.8451 69.0818 35.6952 69.0761 35.5457C69.0703 35.397 69.0646 35.2487 69.0646 35.1004C67.9785 34.8929 66.9275 35.1182 65.8808 35.3425C65.6264 35.397 65.3722 35.4515 65.1179 35.4997C62.8173 35.9269 60.5397 36.0912 58.29 35.2697C58.2735 35.2639 58.2567 35.2578 58.2397 35.2516C58.2249 35.2462 58.21 35.2407 58.195 35.2352L58.1936 35.2347C58.0071 35.1659 57.8041 35.0911 57.6404 35.1316C56.1539 35.4942 54.6362 35.73 53.1185 35.9658C50.0275 36.4461 46.9366 36.9264 44.1097 38.4769C44.052 38.5086 43.9941 38.5402 43.9362 38.5718C42.9577 39.1064 41.971 39.6455 41.2335 40.5126C39.196 42.9066 37.7917 45.5782 39.349 48.6802C40.9704 51.9055 43.3056 54.4917 47.3444 54.4769C51.9391 54.4605 55.5585 56.4962 58.6913 59.6361C58.7406 59.6854 58.7858 59.7389 58.8309 59.7923L58.8313 59.7929C58.8492 59.8141 58.8672 59.8353 58.8853 59.8562C59.5738 59.1979 60.2316 58.5122 60.8587 57.7991L60.6827 57.62C60.5191 57.4549 60.3571 57.2877 60.1949 57.1203L60.1945 57.1197C59.7113 56.621 59.2271 56.1211 58.6978 55.6747C56.81 54.0842 54.6755 53.1542 52.143 53.0819C50.3505 53.0294 48.5482 52.9505 46.7705 52.5775C43.5703 51.9039 41.5328 50.0571 41.0148 47.2902C40.5067 44.5496 41.8305 41.7285 44.4945 40.0854C47.8016 38.0366 51.3783 38.0136 54.9073 39.2113C58.948 40.6066 63.2987 40.8451 67.4678 39.8998ZM36.6537 61.2578C37.9151 63.1327 38.6868 65.2932 38.8984 67.5424C38.9605 67.99 38.9588 68.4442 38.8935 68.8914C38.8927 68.905 38.8927 68.9187 38.8935 68.9324C39.2684 68.8996 39.6433 68.8651 40.015 68.8174C40.7534 68.7287 41.4835 68.6088 42.2104 68.4707C42.3567 65.0565 40.6169 62.3635 38.6731 59.7445C38.5755 59.6138 38.4774 59.4836 38.379 59.353L38.3787 59.3526L38.3784 59.3522C38.378 59.3517 38.3776 59.3511 38.3772 59.3506C37.5683 58.2765 36.7438 57.1816 36.0419 55.6928C35.3381 57.8977 35.5897 59.6459 36.6537 61.2578ZM33.1815 68.9357L33.1822 68.9357V68.9406C33.182 68.939 33.1817 68.9373 33.1815 68.9357C32.7673 68.9012 32.3597 68.8601 31.9439 68.8125C31.2203 68.7254 30.5083 68.6055 29.8061 68.4674C29.668 64.5241 31.8699 61.6603 34.2166 58.619C34.8579 60.2424 35.3167 61.5091 34.381 63.0783C33.3149 64.8333 32.8911 66.9034 33.1815 68.9357ZM13.2479 43.5375C11.4225 46.0415 8.82425 47.5284 5.83131 48.3188C5.68166 48.3582 5.51885 48.4239 5.35605 48.4814C6.59577 51.5055 8.27714 54.3293 10.3454 56.861C12.7167 54.1746 15.4646 52.1454 19.2255 51.917C20.8519 51.8152 22.4833 51.8382 24.0241 51.1037C26.698 49.832 28.0087 47.4233 27.3953 44.7386C26.652 41.4738 24.5487 39.673 21.49 39.7059C18.1665 39.742 15.3265 40.6983 13.2479 43.5375ZM3.27086 40.8905C3.60091 43.0845 4.15186 45.2397 4.91533 47.3231C5.02841 47.282 5.15371 47.252 5.27401 47.2233C5.36541 47.2015 5.45392 47.1803 5.53201 47.1555C8.62527 46.2617 11.1331 44.566 13.1903 41.5691C9.87013 41.8353 6.89528 41.717 3.96483 41.0384C3.88326 41.0195 3.79489 41.0032 3.70429 40.9865C3.55926 40.9598 3.40852 40.932 3.27086 40.8905ZM20.2599 53.0557C16.846 53.0721 14.2148 54.6215 11.9126 56.9595H11.9043C11.7205 57.1479 11.547 57.3466 11.3728 57.5462C11.2977 57.6323 11.2225 57.7185 11.1462 57.8041C11.7843 58.5314 12.4525 59.2286 13.1509 59.8957C16.083 56.6769 19.6449 54.518 24.0998 54.541C27.8722 54.5623 30.2534 52.6203 32.0985 49.7975C34.2955 46.4325 33.146 41.9109 29.7206 39.5646C26.7704 37.5519 23.4354 36.589 19.9491 36.0961C19.6093 36.0483 19.2688 36.0042 18.9284 35.9601C17.5953 35.7873 16.2629 35.6147 14.9713 35.222C14.5368 35.0996 14.0738 35.1257 13.6557 35.2959C11.457 36.0468 9.2403 35.9417 6.98901 35.4997C6.79037 35.4605 6.59148 35.4187 6.39226 35.3769C5.25558 35.1382 4.10844 34.8974 2.93868 35.1169C2.93613 35.208 2.93295 35.2988 2.92978 35.3894C2.92271 35.5915 2.91565 35.7929 2.91565 35.9959C2.91783 37.2587 2.99195 38.5205 3.13766 39.7749C3.39222 39.6811 3.74394 39.7631 4.04712 39.8337L4.04764 39.8338L4.04896 39.8341L4.04936 39.8342L4.05067 39.8345L4.05106 39.8346C4.09708 39.8453 4.14195 39.8558 4.18519 39.8653C8.62454 40.8594 13.2537 40.5937 17.5498 39.098C20.7845 37.9955 24.1244 38.1269 27.2111 39.8948C30.0429 41.5182 31.5015 44.3771 31.0164 47.2524C30.5593 49.9667 28.5283 51.9384 25.2969 52.5627C23.6371 52.8843 21.9507 53.0493 20.2599 53.0557ZM18.5924 19.2532C18.473 18.7256 18.3464 18.212 18.2222 17.7082C17.8043 16.0124 17.4133 14.4263 17.4133 12.7796C17.4133 12.4351 17.4114 12.0904 17.4094 11.7456C17.4036 10.7106 17.3977 9.67479 17.4446 8.64079C14.7797 10.4527 12.3917 12.641 10.3552 15.1374C12.3471 16.0931 14.3298 17.0746 16.3116 18.0557C16.316 18.0579 16.3205 18.0601 16.325 18.0623C16.3425 18.071 16.36 18.0797 16.3775 18.0883C16.3798 18.0895 16.3821 18.0906 16.3844 18.0917C16.6134 18.2051 16.8423 18.3184 17.0713 18.4317C17.3485 18.5686 17.6198 18.7186 17.9477 18.9C18.1391 19.0058 18.3499 19.1224 18.5924 19.2532ZM20.0609 22.0136C17.1995 19.6821 13.8909 18.1113 10.5592 16.5915H10.5526C10.4239 16.5338 10.2924 16.4818 10.1617 16.4301C9.98006 16.3583 9.80003 16.2872 9.63168 16.2021L9.55275 16.1659C8.81738 17.145 8.13716 18.1641 7.51525 19.2187C7.54733 19.3141 7.58522 19.4073 7.62872 19.498C9.6432 23.5219 12.6115 26.3512 17.1667 27.3502C19.7084 27.8884 22.1173 28.9273 24.2527 30.4062C23.715 26.9082 22.623 24.0953 20.0609 22.0136ZM26.3938 13.3908C26.0572 12.7269 25.6974 12.0731 25.3376 11.4192C25.0189 10.84 24.7002 10.2608 24.3974 9.67426H24.3908C23.6998 8.35984 23.3771 6.88328 23.4568 5.4007C21.8221 6.07154 20.2439 6.87207 18.7371 7.79462C18.728 7.85569 18.7173 7.9169 18.7067 7.97731C18.6812 8.1233 18.6566 8.26457 18.6566 8.38776C18.5743 10.9213 18.5414 13.4467 19.0923 15.9458C19.5084 17.8336 20.0116 19.7511 21.3387 21.1592C24.0192 24.0016 25.0996 27.4865 25.8643 31.1555C26.2096 32.8232 26.823 34.3873 27.882 35.7478C27.9251 35.8028 27.9675 35.8585 28.0103 35.9148C28.3404 36.3485 28.6941 36.8132 29.5413 37.2495C29.5017 36.5212 29.5661 35.8064 29.6291 35.1068C29.7778 33.4567 29.9189 31.8915 28.6681 30.4342C28.6464 30.4091 28.6242 30.3839 28.6017 30.3586C28.352 30.0763 28.0846 29.774 28.4362 29.4303C28.8519 29.0207 29.1646 29.3537 29.4304 29.6367C29.4706 29.6795 29.5097 29.7211 29.5479 29.7589C30.63 30.8351 30.7648 32.253 30.7944 33.6677C30.804 34.1228 30.7532 34.5801 30.7023 35.0381C30.666 35.3654 30.6296 35.6931 30.6152 36.0205C30.551 37.5371 30.847 38.8499 32.1626 39.8965C33.9436 41.3227 34.9812 43.3272 35.991 45.7917C36.9957 43.411 38.2866 41.6283 39.6483 39.8768C40.3176 39.0191 39.9081 37.8279 39.469 36.8108C38.5467 34.6215 37.0739 32.7074 35.1934 31.2541C32.258 28.9982 29.6186 26.55 28.354 22.9008C28.0107 21.9136 27.1538 21.3229 26.3038 20.737C26.0178 20.5399 25.7326 20.3433 25.468 20.1323C24.2494 19.1629 23.2052 18.0834 23.141 16.4042C23.139 16.3565 23.1356 16.3062 23.1322 16.2543C23.1056 15.853 23.0729 15.3607 23.5768 15.2705C24.1538 15.1693 24.1574 15.573 24.1608 15.9493C24.1616 16.0373 24.1624 16.1239 24.1705 16.2021C24.3441 17.8739 25.4928 18.747 26.7654 19.7143C27.0112 19.9011 27.2615 20.0914 27.5104 20.2916C27.8898 17.9313 27.4983 15.5115 26.3938 13.3908ZM54.5932 8.66544V8.82974H54.5867C54.9392 12.0264 54.5936 15.2615 53.5737 18.3118C53.5662 18.3378 53.5583 18.3638 53.5504 18.3899C53.4777 18.6293 53.403 18.8756 53.6625 19.1793C56.0646 17.7556 58.55 16.4772 61.1054 15.351C61.2153 15.3023 61.3265 15.2562 61.4374 15.2103C61.5023 15.1834 61.5672 15.1565 61.6316 15.1292C59.6087 12.6477 57.2382 10.4707 54.5932 8.66544ZM58.142 33.5576C62.092 32.092 65.1277 29.5404 67.3067 25.9487C67.34 25.8931 67.3716 25.8328 67.4033 25.7721C67.4138 25.7521 67.4243 25.732 67.4349 25.7121C66.8525 23.9387 66.1197 22.2182 65.2445 20.5693C63.1807 24.6079 60.1039 27.4389 55.5141 28.4559C54.831 28.6066 54.1704 28.8224 53.5097 29.0383C53.2623 29.1192 53.0149 29.2 52.7662 29.2775C49.2619 30.3668 46.8461 32.5931 45.5651 36.4691C47.7767 35.5213 50.0587 35.1809 52.3167 34.8441C54.2982 34.5485 56.2613 34.2557 58.142 33.5576ZM69.0071 33.8451C68.8656 31.6468 68.5036 29.4681 67.9266 27.342C66.3282 29.8936 64.1164 31.8308 61.5181 33.3851C61.1859 33.5876 60.8443 33.7829 60.3188 34.0833C60.1836 34.1606 60.0362 34.2449 59.8736 34.3381C61.4955 34.8307 62.8066 34.6157 64.082 34.4066C64.1891 34.389 64.2958 34.3715 64.4025 34.3545C64.7963 34.2922 65.1885 34.2137 65.5807 34.1352C66.7103 33.9091 67.8401 33.6829 69.0071 33.8451ZM57.7309 26.3676C60.8324 25.0844 62.7959 22.5475 64.3088 19.6311H64.3154C64.3798 19.493 64.4353 19.3508 64.4815 19.2056C63.8597 18.1528 63.1801 17.1353 62.4456 16.1577C61.9247 16.4038 61.4025 16.646 60.8807 16.888C59.9527 17.3184 59.0259 17.7483 58.1091 18.1984C56.1297 19.1494 54.2416 20.2796 52.4686 21.5749C49.6269 23.6845 48.3294 26.619 47.721 30.5048C49.854 28.8922 52.1648 28.1859 54.428 27.4942C55.5498 27.1513 56.66 26.812 57.7309 26.3676ZM45.815 20.1569C46.2232 21.4607 46.5944 22.7736 46.96 24.0667L46.9602 24.0673C47.0879 24.5193 47.215 24.9688 47.3428 25.4147C51.9012 20.8256 53.9683 15.3937 53.401 8.97104C53.3874 8.81909 53.3436 8.6358 53.2971 8.44182C53.2421 8.21211 53.1835 7.96742 53.1675 7.74204C51.6631 6.82697 50.0875 6.03411 48.4561 5.37112C47.5697 6.99609 46.7359 8.63914 46.1094 10.389C44.9566 13.6192 44.7774 16.861 45.815 20.1569ZM43.4322 14.9846C43.9208 14.8641 43.9172 14.5548 43.914 14.269C43.9129 14.1806 43.9119 14.0945 43.9255 14.0168H43.9288C44.4452 10.7603 45.6309 7.75683 47.2589 4.91107C44.516 3.91872 41.653 3.296 38.7454 3.05935V3.07085C39.0497 7.54323 41.1299 11.3009 43.4322 14.9846ZM43.3483 17.7843C42.7028 16.4066 41.948 15.08 41.1935 13.7541C40.9178 13.2695 40.6421 12.7851 40.3718 12.2982H40.3751C38.7915 9.46231 37.7012 6.47689 37.5384 3.2023C37.5335 3.13 37.5269 3.05278 37.5187 2.97556C37.0122 2.95255 36.5057 2.93613 35.9942 2.93613C35.5371 2.93613 35.0832 2.95255 34.631 2.97063C34.5964 5.83282 33.8137 8.50606 32.4586 11.0117C32.2918 11.3173 32.1288 11.6252 31.9658 11.9331C31.4424 12.9215 30.9196 13.9088 30.2764 14.8121C28.0893 17.878 28.65 20.9686 30.0758 24.0542C31.268 26.6305 33.299 28.4527 35.7673 29.956C35.4003 28.8396 35.3953 27.6614 35.3903 26.4827C35.3822 24.5875 35.3741 22.6912 33.8614 21.0491C32.9585 20.0731 33.2661 18.5977 33.6443 17.3144C33.8078 16.7583 34.0257 16.2149 34.2437 15.6714C34.797 14.2914 35.3504 12.9113 35.0141 11.3222C34.9962 11.2533 34.9941 11.1811 35.0082 11.1113C35.0223 11.0414 35.0521 10.9756 35.0953 10.919C35.1386 10.8623 35.1941 10.8162 35.2579 10.7842C35.3216 10.7521 35.3918 10.735 35.4631 10.734C35.8775 10.7143 36.0156 11.0446 36.1209 11.383C36.4472 12.4242 36.1509 13.4154 35.8578 14.396C35.8452 14.4383 35.8325 14.4806 35.8199 14.5229C35.6681 15.0331 35.4724 15.5293 35.2766 16.0257C35.0801 16.5237 34.8837 17.022 34.7313 17.5346C34.3119 18.9312 34.3531 20.2851 35.5535 21.542C35.808 21.1648 36.0268 20.7707 36.2427 20.3821C36.7537 19.4621 37.2475 18.573 38.1551 18.0127C38.2358 17.9627 38.3186 17.8999 38.403 17.8359C38.7401 17.5803 39.1038 17.3045 39.4707 17.7367C39.9062 18.2485 39.4938 18.485 39.1395 18.6883C39.0456 18.7422 38.9558 18.7937 38.8869 18.8474C38.258 19.3303 37.7347 19.9367 37.3492 20.6293C36.9637 21.3219 36.7242 22.086 36.6455 22.8745C36.259 26.1672 36.4547 29.3875 38.2899 32.3253C38.8922 33.2869 39.4412 34.2832 40.0094 35.3141L40.01 35.3151C40.2716 35.7899 40.5374 36.2721 40.8142 36.7615C43.2102 33.4064 42.4028 30.2699 40.8471 27.0889C40.7741 26.9399 40.6361 26.779 40.4938 26.613C40.1166 26.1732 39.7084 25.6972 40.3949 25.3095C41.0152 24.9536 41.3622 25.6743 41.6491 26.2701C41.7105 26.3977 41.7692 26.5196 41.8272 26.6239C43.8252 30.3438 44.21 34.0817 41.523 37.9298C44.0242 36.8059 46.042 33.298 46.2607 30.1204C46.5682 25.7055 45.1737 21.68 43.3483 17.7843ZM28.3886 15.4808C28.643 15.0561 28.898 14.637 29.1506 14.2217C31.2112 10.8346 33.117 7.70191 33.3499 3.83651H33.3532C33.359 3.70507 33.3664 3.57363 33.3738 3.44218C33.3812 3.31074 33.3886 3.1793 33.3943 3.04785C30.3843 3.27919 27.4204 3.92385 24.5865 4.96365C24.3678 6.30437 24.6852 7.57116 25.2361 8.7788C25.5767 9.52924 25.9706 10.2519 26.3722 10.9886C27.1144 12.3504 27.8827 13.7599 28.3886 15.4808ZM20.6233 29.8065C19.2201 29.225 17.7742 28.7521 16.2984 28.3919C11.7794 27.3403 8.76505 24.5225 6.75879 20.5414C5.88015 22.1948 5.14459 23.9203 4.56013 25.6989C8.05134 31.6188 13.437 34.3052 20.1201 34.8688C22.0221 35.0285 23.8588 35.5888 25.8424 36.194C26.0627 36.2612 26.2847 36.329 26.5089 36.3968C25.2624 33.3177 23.5966 30.9994 20.6233 29.8065ZM12.1379 34.3446C9.56262 32.8856 7.41658 31.4841 5.70304 29.5124C5.10171 28.8373 4.55304 28.1172 4.06185 27.3584C3.48797 29.4744 3.12768 31.6426 2.98636 33.8304C3.99443 33.6726 5.00413 33.8501 6.01549 34.0341C6.31061 34.0879 6.60561 34.1476 6.90226 34.2076C8.50651 34.5319 10.1588 34.866 12.1379 34.3446ZM24.6671 55.7437C20.6398 55.6862 17.4166 57.4689 14.6046 60.1799C14.4281 60.3468 14.268 60.5316 14.1059 60.7186L14.08 60.7484C15.0573 61.6119 16.0841 62.4178 17.1552 63.1621C18.0964 61.825 19.4191 60.8024 20.9506 60.2276C22.6552 59.6142 24.1496 58.5286 25.2591 57.0976C25.3274 57.0095 25.4152 56.9251 25.5043 56.8396C25.7543 56.5994 26.0136 56.3503 25.8742 55.9869C25.711 55.5793 25.354 55.642 25.0122 55.7019C24.8923 55.723 24.7743 55.7437 24.6671 55.7437ZM27.0532 56.9185C25.5502 58.9674 23.7182 60.5315 21.3124 61.4467C20.0651 61.928 18.9898 62.7701 18.2241 63.8653C19.6291 64.7665 21.1008 65.5596 22.6263 66.2378C23.3299 64.5208 24.4074 62.9818 25.7804 61.7326C26.8477 60.7468 27.8853 59.7133 28.9049 58.67C30.209 57.3407 30.5149 55.6632 30.5856 53.6094C29.0381 54.5377 27.9692 55.673 27.0532 56.9185ZM28.62 60.8685L28.604 60.8831C28.5764 60.9082 28.5487 60.9333 28.5211 60.9583C28.4808 60.9949 28.4405 61.0314 28.4002 61.068C28.3984 61.0696 28.3966 61.0712 28.3948 61.0729C26.5588 62.7374 24.742 64.3845 23.7709 66.7209C25.3205 67.3346 26.9148 67.8289 28.5398 68.1996C28.451 65.7351 29.3489 63.5482 30.6086 61.4828C30.6621 61.3954 30.7156 61.3076 30.7691 61.2198C31.3309 60.2977 31.9009 59.3621 32.6231 58.573C35.6982 55.2031 35.5733 51.2598 34.7987 47.1982C34.4724 47.9576 34.1149 48.7015 33.7585 49.4434C32.6634 51.7225 31.5776 53.9821 31.4325 56.6112C31.3326 58.4029 29.91 59.696 28.62 60.8685ZM36.0354 63.0651C35.6308 63.026 35.5235 63.3593 35.4257 63.6628C35.4003 63.7418 35.3755 63.8188 35.3463 63.8866H35.3381C34.6228 65.5017 34.2083 67.1793 34.3991 68.9751V69.0294C34.4147 69.0303 34.4303 69.0313 34.4457 69.0324C34.4613 69.0335 34.4767 69.0347 34.4921 69.0359C34.5 69.0365 34.5078 69.0372 34.5157 69.0378C34.5291 69.0389 34.5425 69.0399 34.5559 69.041C34.6136 69.0454 34.6706 69.0491 34.728 69.0491C35.1506 69.0737 35.5798 69.0737 36.0025 69.0737C36.4251 69.0737 36.8461 69.0655 37.2687 69.0491C37.3192 69.0476 37.3694 69.0436 37.4195 69.0395C37.482 69.0344 37.5445 69.0294 37.6075 69.0294C37.609 69.0204 37.6106 69.0116 37.6122 69.0027C37.613 68.9986 37.6138 68.9945 37.6145 68.9905C37.6226 68.9467 37.6305 68.9044 37.6305 68.8651C37.7884 67.1366 37.3772 65.5165 36.7079 63.9458C36.6795 63.8795 36.6539 63.8064 36.6277 63.7315C36.5209 63.4263 36.4038 63.0915 36.0354 63.0651ZM37.4611 46.9649C35.9942 50.0998 36.6027 54.886 38.7043 57.6578H38.6978C38.7748 57.7595 38.8519 57.861 38.9291 57.9626C38.9297 57.9635 38.9304 57.9644 38.9311 57.9653C38.9318 57.9662 38.9325 57.9671 38.9332 57.968C38.9339 57.9689 38.9345 57.9698 38.9352 57.9707C40.3525 59.8368 41.7685 61.7013 42.6609 63.9063C43.2296 65.2674 43.5095 66.7315 43.4832 68.2062C45.1083 67.8302 46.7026 67.3315 48.2522 66.7143C47.2971 64.41 45.5066 62.7746 43.7206 61.1434C43.5353 60.9741 43.3501 60.8049 43.1658 60.635C41.4966 59.0889 40.3718 57.2635 40.2288 54.937C40.1202 53.1641 39.6614 51.5293 38.5695 50.0752C38.0917 49.4386 37.8963 48.6591 37.6828 47.8071C37.6742 47.7729 37.6656 47.7384 37.6569 47.704C37.5963 47.4626 37.5332 47.2157 37.4611 46.9649ZM43.0984 58.688C44.0216 59.6721 44.9948 60.6083 46.014 61.4927H46.0074C47.5286 62.8154 48.5893 64.4321 49.3967 66.228C50.9226 65.5522 52.3953 64.7624 53.8023 63.8653C52.8654 62.6621 51.6131 61.7418 50.1844 61.2068C48.137 60.4001 46.5353 59.0117 45.2296 57.2635C44.1867 55.8456 42.9322 54.596 41.5098 53.5584C41.4013 55.6665 41.8206 57.3276 43.0984 58.688ZM46.7031 57.0466C47.7793 58.4344 49.2178 59.4987 50.8603 60.1224H50.8537C52.4514 60.7249 53.842 61.7738 54.8596 63.144C55.9289 62.4008 56.9536 61.5954 57.9282 60.732C57.177 59.8812 56.3331 59.1168 55.4122 58.4531C52.9619 56.741 50.3258 55.5662 47.2441 55.7552C47.1314 55.7632 47.0071 55.741 46.8824 55.7187C46.5995 55.6681 46.315 55.6172 46.162 55.9195C45.9685 56.3037 46.2349 56.5669 46.4873 56.8164C46.5652 56.8934 46.6418 56.9691 46.7031 57.0466Z" fill="#EAEAEA"/>
<path d="M84.7115 43.2189C82.3339 40.9068 81.1451 38.0167 81.1451 34.5485C81.1451 31.0804 82.3339 28.2011 84.7115 25.9108C87.1108 23.5987 90.1755 22.4427 93.9054 22.4427C98.0497 22.4427 101.289 23.8932 103.623 26.7942C104.648 28.0812 105.39 29.5208 105.848 31.1131H99.6311C99.3257 30.5241 98.9222 30.0116 98.4205 29.5753C97.2427 28.5283 95.7376 28.0048 93.9054 28.0048C92.0077 28.0048 90.4699 28.6047 89.2921 29.8043C88.1142 31.004 87.5253 32.5854 87.5253 34.5485C87.5253 36.5116 88.1142 38.093 89.2921 39.2927C90.4699 40.4924 92.0077 41.0922 93.9054 41.0922C95.7812 41.0922 97.3081 40.5469 98.486 39.4563C99.0095 38.9328 99.3912 38.3875 99.6311 37.8204H96.5228V33.2398H108.465V37.8204H105.88C105.357 39.4781 104.572 40.9504 103.525 42.2374C101.147 45.182 97.9406 46.6544 93.9054 46.6544C90.1755 46.6544 87.1108 45.5092 84.7115 43.2189ZM110.428 46V23.097H121.88C124.606 23.097 126.809 23.8714 128.489 25.4201C130.19 26.9469 131.041 28.8446 131.041 31.1131C131.041 34.0577 129.514 36.348 126.46 37.984L131.204 46H124.661L120.571 39.1291H116.481V46H110.428ZM116.481 33.567H121.716C122.654 33.567 123.407 33.327 123.974 32.8472C124.541 32.3673 124.824 31.7893 124.824 31.1131C124.824 30.4369 124.541 29.8589 123.974 29.379C123.407 28.8991 122.654 28.6592 121.716 28.6592H116.481V33.567ZM132.034 46L138.25 23.097H149.375L155.591 46H149.375L148.23 41.4194H139.396L138.25 46H132.034ZM140.704 36.1844H146.921L144.958 28.6592H142.667L140.704 36.1844ZM159.328 43.2189C156.95 40.9068 155.761 38.0167 155.761 34.5485C155.761 31.0804 156.95 28.2011 159.328 25.9108C161.727 23.5987 164.792 22.4427 168.521 22.4427C172.644 22.4427 175.883 23.9477 178.239 26.9578C179.286 28.332 180.027 29.8262 180.464 31.4403H174.247C173.92 30.7641 173.516 30.197 173.037 29.7389C171.881 28.5828 170.376 28.0048 168.521 28.0048C166.624 28.0048 165.086 28.6047 163.908 29.8043C162.73 31.004 162.141 32.5854 162.141 34.5485C162.141 36.5116 162.73 38.093 163.908 39.2927C165.086 40.4924 166.624 41.0922 168.521 41.0922C170.572 41.0922 172.164 40.4379 173.298 39.1291C173.822 38.5402 174.193 37.8858 174.411 37.166H180.627C180.147 38.9328 179.373 40.5142 178.304 41.9102C175.97 45.073 172.709 46.6544 168.521 46.6544C164.792 46.6544 161.727 45.5092 159.328 43.2189ZM183.415 46V23.097H201.083V28.6592H189.468V32.0946H198.792V37.0024H189.468V40.4379H201.083V46H183.415ZM215.603 43.2189C213.226 40.9068 212.037 38.0167 212.037 34.5485C212.037 31.0804 213.226 28.2011 215.603 25.9108C218.003 23.5987 221.067 22.4427 224.797 22.4427C228.942 22.4427 232.181 23.8932 234.515 26.7942C235.54 28.0812 236.281 29.5208 236.74 31.1131H230.523C230.218 30.5241 229.814 30.0116 229.312 29.5753C228.135 28.5283 226.63 28.0048 224.797 28.0048C222.9 28.0048 221.362 28.6047 220.184 29.8043C219.006 31.004 218.417 32.5854 218.417 34.5485C218.417 36.5116 219.006 38.093 220.184 39.2927C221.362 40.4924 222.9 41.0922 224.797 41.0922C226.673 41.0922 228.2 40.5469 229.378 39.4563C229.901 38.9328 230.283 38.3875 230.523 37.8204H227.415V33.2398H239.357V37.8204H236.772C236.249 39.4781 235.464 40.9504 234.417 42.2374C232.039 45.182 228.833 46.6544 224.797 46.6544C221.067 46.6544 218.003 45.5092 215.603 43.2189ZM241.32 46V23.097H247.373V40.4379H258.334V46H241.32ZM258.325 46L264.541 23.097H275.666L281.882 46H275.666L274.52 41.4194H265.686L264.541 46H258.325ZM266.995 36.1844H273.212L271.249 28.6592H268.958L266.995 36.1844ZM283.673 46V23.097H292.539C296.313 23.097 299.378 24.1986 301.733 26.4016C304.089 28.5828 305.267 31.2985 305.267 34.5485C305.267 37.7986 304.089 40.5251 301.733 42.7281C299.378 44.9094 296.313 46 292.539 46H283.673ZM289.726 40.4379H292.507C294.535 40.4379 296.106 39.9144 297.218 38.8674C298.331 37.8204 298.887 36.3808 298.887 34.5485C298.887 32.7163 298.331 31.2767 297.218 30.2297C296.106 29.1827 294.535 28.6592 292.507 28.6592H289.726V40.4379ZM308.204 46V23.097H325.872V28.6592H314.257V32.0946H323.582V37.0024H314.257V40.4379H325.872V46H308.204Z" fill="#EAEAEA"/>
</svg>
