<svg width="2568" height="581" viewBox="0 0 2568 581" fill="none" xmlns="http://www.w3.org/2000/svg">
<path d="M53.3193 95.7675C37.7131 95.7675 24.9093 91.1715 15.0057 81.8833C5.00188 72.5939 0 61.3069 0 47.8226C0 33.9373 5.00188 22.6493 15.0057 13.8609C24.9093 5.07118 37.7131 0.674927 53.3193 0.674927C69.2245 0.674927 82.0295 5.07118 91.9332 13.8609C101.736 22.6493 106.737 33.9373 106.737 47.8226C106.737 61.8054 101.736 73.3935 91.9332 82.3819C82.0295 91.2727 69.2245 95.7675 53.3193 95.7675ZM99.0357 442.873H6.50317V143.214H99.0357V442.873Z" fill="white"/>
<path d="M161.824 427.043V333.227C178.914 347.529 197.511 358.231 217.516 365.332C237.52 372.433 257.727 376.034 278.133 376.034C290.196 376.034 300.651 374.934 309.497 372.834C318.444 370.633 325.883 367.733 331.915 363.831C337.946 360.031 342.369 355.532 345.285 350.429C348.301 345.229 349.708 339.629 349.708 333.526C349.708 325.325 347.396 318.025 342.671 311.623C337.946 305.121 331.513 299.121 323.37 293.721C315.228 288.219 305.577 282.919 294.317 277.918C283.159 272.818 271.096 267.615 258.129 262.314C225.155 248.714 200.527 232.011 184.342 212.207C168.157 192.505 160.116 168.701 160.116 140.794C160.116 118.892 164.438 100.089 173.284 84.386C182.13 68.5837 194.193 55.6809 209.373 45.4801C224.654 35.3768 242.245 27.8766 262.25 23.0746C282.254 18.275 303.465 15.8733 325.883 15.8733C347.898 15.8733 367.401 17.2756 384.39 19.8738C401.277 22.4755 416.96 26.5757 431.335 32.077V119.691C424.198 114.791 416.558 110.489 408.215 106.79C399.87 103.088 391.225 99.9892 382.378 97.4887C373.633 95.0883 364.787 93.287 356.04 92.0862C347.295 90.9855 339.052 90.3863 331.211 90.3863C320.354 90.3863 310.602 91.3857 301.757 93.3858C292.911 95.4884 285.471 98.387 279.34 102.089C273.308 105.788 268.583 110.19 265.166 115.39C261.848 120.592 260.24 126.393 260.24 132.793C260.24 139.894 262.049 146.195 265.768 151.697C269.488 157.298 274.816 162.599 281.753 167.6C288.588 172.501 296.931 177.401 306.783 182.203C316.534 187.002 327.692 191.903 340.057 197.005C356.946 204.005 372.025 211.508 385.495 219.407C398.965 227.309 410.527 236.311 420.077 246.213C429.727 256.215 437.065 267.615 442.192 280.418C447.319 293.119 449.832 308.022 449.832 325.025C449.832 348.53 445.409 368.133 436.462 384.135C427.514 400.038 415.453 412.941 400.071 422.742C384.791 432.644 366.998 439.745 346.692 444.047C326.285 448.347 304.873 450.447 282.254 450.447C259.134 450.447 237.118 448.546 216.209 444.645C195.3 440.744 177.104 434.844 161.824 427.043Z" fill="white"/>
<path d="M604.691 408.42H603.49V580.116H510.815V145.166H603.49V189.952H604.691C627.634 155.294 659.796 137.918 701.273 137.918C740.247 137.918 770.303 151.123 791.543 177.639C812.783 204.052 823.403 240.1 823.403 285.68C823.403 335.332 810.98 375.154 786.234 405.242C761.487 435.33 728.525 450.327 687.447 450.327C651.279 450.327 623.727 436.423 604.691 408.42ZM602.086 286.277V310.109C602.086 330.665 607.497 347.448 618.517 360.455C629.439 373.466 643.866 379.919 661.699 379.919C682.738 379.919 699.169 371.877 710.791 355.689C722.413 339.503 728.324 316.564 728.324 286.872C728.324 234.44 707.786 208.322 666.608 208.322C647.673 208.322 632.143 215.373 620.121 229.674C608.098 243.974 602.086 262.84 602.086 286.277Z" fill="white"/>
<path d="M1128.37 443.251H1039.94V400.426H1038.73C1018.44 433.812 988.356 450.506 948.482 450.506C919.108 450.506 895.991 442.358 879.134 425.962C862.276 409.568 853.898 387.611 853.898 360.285C853.898 302.459 888.723 269.073 958.274 260.13L1040.54 249.399C1040.54 216.808 1022.58 200.514 986.641 200.514C950.603 200.514 916.282 211.047 883.777 232.211V162.956C896.799 156.298 914.566 150.536 937.177 145.467C959.688 140.402 980.28 137.918 998.854 137.918C1085.16 137.918 1128.37 180.343 1128.37 265.098V443.251ZM1040.54 322.131V302.061L985.53 309.015C955.146 312.89 940.004 326.405 940.004 349.556C940.004 359.987 943.637 368.633 951.006 375.29C958.476 381.947 968.47 385.324 981.088 385.324C998.652 385.324 1012.89 379.362 1023.99 367.44C1034.99 355.517 1040.54 340.415 1040.54 322.131Z" fill="white"/>
<path d="M1425.72 432.522C1404.92 444.544 1374.87 450.506 1335.67 450.506C1289.8 450.506 1252.69 436.694 1224.33 408.873C1195.97 381.152 1181.75 345.383 1181.75 301.464C1181.75 250.791 1196.97 210.947 1227.32 181.734C1257.76 152.521 1298.46 137.918 1349.4 137.918C1384.52 137.918 1410 142.586 1425.72 151.827V229.924C1406.51 215.517 1385.02 208.363 1361.34 208.363C1334.87 208.363 1313.98 216.014 1298.46 231.515C1283.04 246.915 1275.27 268.177 1275.27 295.404C1275.27 321.734 1282.74 342.501 1297.46 357.503C1312.19 372.606 1332.59 380.058 1358.36 380.058C1381.34 380.058 1403.73 372.904 1425.72 358.496V432.522Z" fill="white"/>
<path d="M1753.55 320.443H1561.46C1564.51 363.665 1591.5 385.324 1642.24 385.324C1674.63 385.324 1703.1 377.574 1727.64 362.073V428.446C1700.45 443.153 1665.11 450.506 1621.53 450.506C1574.03 450.506 1537.12 437.192 1510.82 410.464C1484.61 383.833 1471.46 346.573 1471.46 298.881C1471.46 249.399 1485.59 210.151 1514.06 181.237C1542.42 152.324 1577.27 137.918 1618.69 137.918C1661.58 137.918 1694.85 150.834 1718.31 176.568C1741.77 202.401 1753.55 237.476 1753.55 281.692V320.443ZM1669.33 263.905C1669.33 221.28 1652.26 199.916 1618.1 199.916C1603.57 199.916 1590.91 205.978 1580.31 218.2C1569.61 230.421 1563.23 245.722 1560.88 263.905H1669.33Z" fill="white"/>
<path d="M2539.13 529.769C2537.01 529.648 2534.89 530.091 2532.99 531.054C2531.1 532.017 2529.49 533.464 2528.34 535.248C2525.93 538.728 2524.72 542.892 2524.88 547.116L2524.86 580.035H2511.26L2511.28 537.316C2511.28 530.495 2511.24 524.143 2510.88 518.372H2522.53L2523.17 529.841H2523.4C2524.7 526.106 2527.05 522.82 2530.16 520.368C2532.96 518.343 2536.33 517.229 2539.79 517.175C2540.95 517.147 2542.12 517.232 2543.26 517.428V530.168C2541.9 529.958 2540.52 529.825 2539.13 529.769ZM2498.63 545.773C2498.66 547.753 2498.53 549.733 2498.23 551.69H2458.43C2458.34 554.269 2458.81 556.837 2459.82 559.214C2460.83 561.59 2462.35 563.717 2464.27 565.445C2468.03 568.419 2472.75 569.928 2477.54 569.691C2483.12 569.812 2488.66 568.864 2493.87 566.897L2495.51 576.333C2489.29 578.974 2482.57 580.237 2475.82 580.036C2471.74 580.268 2467.65 579.653 2463.82 578.228C2459.99 576.804 2456.5 574.601 2453.57 571.761C2450.83 568.766 2448.71 565.255 2447.35 561.434C2445.99 557.614 2445.4 553.561 2445.63 549.513C2445.31 541.292 2447.91 533.221 2452.97 526.72C2455.48 523.535 2458.71 520.99 2462.4 519.292C2466.09 517.595 2470.14 516.795 2474.2 516.957C2478.08 516.755 2481.96 517.546 2485.45 519.254C2488.95 520.963 2491.95 523.533 2494.17 526.72C2497.13 532.635 2498.66 539.162 2498.63 545.774L2498.63 545.773ZM2486.63 542.217C2486.74 538.603 2485.82 535.031 2483.99 531.911C2482.85 530.126 2481.25 528.677 2479.36 527.714C2477.47 526.751 2475.35 526.308 2473.23 526.43C2471.13 526.416 2469.06 526.895 2467.19 527.829C2465.31 528.762 2463.68 530.124 2462.44 531.803C2460.12 534.817 2458.73 538.434 2458.43 542.218L2486.63 542.217ZM2432.54 490.645L2432.54 580.036H2418.38L2418.38 490.645H2432.54ZM2404.11 490.645L2404.11 580.036H2390.51L2390.51 490.645H2404.11ZM2378.13 545.773C2378.1 547.754 2377.94 549.73 2377.65 551.69H2338.55C2338.46 554.272 2338.94 556.843 2339.95 559.22C2340.97 561.597 2342.5 563.722 2344.43 565.445C2345.93 566.981 2347.76 568.161 2349.78 568.896C2351.8 569.631 2353.96 569.903 2356.1 569.69C2361.72 569.813 2367.31 568.864 2372.57 566.896L2374.67 576.333C2368.21 578.929 2361.29 580.188 2354.33 580.036C2350.52 580.153 2346.72 579.477 2343.18 578.053C2339.65 576.628 2336.44 574.486 2333.78 571.761C2331.02 568.772 2328.89 565.265 2327.51 561.445C2326.13 557.625 2325.52 553.568 2325.73 549.513C2325.41 541.276 2328.04 533.194 2333.16 526.72C2335.48 523.709 2338.47 521.264 2341.88 519.573C2345.29 517.881 2349.05 516.986 2352.86 516.957C2356.73 516.741 2360.6 517.526 2364.08 519.237C2367.56 520.948 2370.53 523.525 2372.72 526.72C2376.47 532.353 2378.36 539.016 2378.13 545.774L2378.13 545.773ZM2365.27 542.217C2365.36 538.59 2364.41 535.014 2362.52 531.91C2361.38 530.127 2359.78 528.68 2357.89 527.717C2356 526.754 2353.89 526.31 2351.77 526.43C2349.9 526.463 2348.07 526.975 2346.46 527.916C2344.84 528.857 2343.5 530.195 2342.55 531.803C2340.32 534.859 2338.93 538.454 2338.55 542.218L2365.27 542.217ZM2316.52 561.527C2316.57 564.081 2316.04 566.613 2314.98 568.937C2313.91 571.261 2312.34 573.317 2310.37 574.953C2305.39 578.574 2299.32 580.37 2293.16 580.035C2287.03 580.24 2280.95 578.825 2275.54 575.934L2278.42 565.953C2282.96 568.617 2288.15 569.997 2293.42 569.945C2300.17 569.945 2303.8 567.513 2303.8 562.577C2303.81 561.515 2303.61 560.462 2303.21 559.478C2302.81 558.494 2302.21 557.598 2301.47 556.843C2299.04 555.009 2296.32 553.61 2293.42 552.706C2282.66 548.64 2277.18 543.052 2277.18 535.358C2277.17 532.888 2277.69 530.445 2278.7 528.191C2279.72 525.937 2281.2 523.926 2283.06 522.291C2287.6 518.751 2293.26 516.937 2299.03 517.176C2304.35 517.019 2309.61 518.258 2314.3 520.767L2311.42 530.276C2307.67 528.108 2303.42 526.957 2299.08 526.937C2296.7 526.795 2294.34 527.503 2292.44 528.935C2291.69 529.557 2291.1 530.335 2290.69 531.213C2290.28 532.09 2290.07 533.047 2290.07 534.015C2290.08 534.995 2290.31 535.961 2290.75 536.84C2291.18 537.72 2291.81 538.491 2292.58 539.095C2295.05 540.919 2297.81 542.318 2300.74 543.233C2311.42 547.189 2316.52 553.178 2316.52 561.525V561.527ZM2267.81 545.773C2267.81 547.762 2267.6 549.745 2267.19 551.69H2226.68C2226.55 554.276 2227.02 556.857 2228.04 559.239C2229.06 561.622 2230.6 563.743 2232.56 565.445C2236.28 568.41 2240.96 569.92 2245.72 569.69C2251.35 569.802 2256.95 568.854 2262.23 566.896L2264.24 576.333C2257.78 578.942 2250.86 580.203 2243.9 580.036C2239.84 580.255 2235.78 579.632 2231.97 578.208C2228.17 576.784 2224.7 574.589 2221.78 571.761C2219.04 568.762 2216.93 565.252 2215.56 561.433C2214.18 557.615 2213.58 553.563 2213.79 549.513C2213.45 541.265 2216.11 533.171 2221.27 526.72C2223.78 523.542 2227 521.001 2230.68 519.304C2234.36 517.607 2238.39 516.803 2242.45 516.957C2246.33 516.757 2250.2 517.549 2253.69 519.258C2257.17 520.966 2260.17 523.535 2262.38 526.72C2266.04 532.398 2267.92 539.028 2267.81 545.774V545.773ZM2254.83 542.217C2255.03 538.578 2254.07 534.968 2252.08 531.91C2250.93 530.122 2249.33 528.672 2247.44 527.708C2245.54 526.745 2243.42 526.303 2241.3 526.43C2239.23 526.416 2237.19 526.897 2235.35 527.832C2233.51 528.767 2231.92 530.129 2230.72 531.803C2228.37 534.802 2226.97 538.425 2226.68 542.218L2254.83 542.217ZM2194.46 580.036C2193.84 576.406 2191.96 569.691 2189.65 558.912C2189.16 554.52 2187.31 550.387 2184.37 547.08C2182.99 545.819 2181.37 544.853 2179.6 544.242C2177.83 543.63 2175.95 543.386 2174.09 543.524H2165.88L2165.87 580.036H2152.2L2152.2 496.124C2159.44 494.936 2166.76 494.391 2174.09 494.493C2182.98 493.713 2191.86 496.048 2199.21 501.097C2203.51 504.799 2206.16 510.048 2206.58 515.694C2207 521.339 2205.16 526.922 2201.47 531.22C2198.64 534.665 2194.89 537.244 2190.65 538.661V539.023C2193.9 540.591 2196.7 542.931 2198.82 545.836C2200.94 548.742 2202.31 552.123 2202.81 555.682C2204.73 562.65 2205.78 567.513 2206.64 570.018C2207.41 573.47 2208.56 576.829 2210.06 580.036L2194.46 580.036ZM2192.62 518.772C2192.62 509.155 2186.83 504.436 2175.51 504.364C2172.27 504.267 2169.04 504.571 2165.88 505.271V533.725H2175.25C2179.82 533.941 2184.3 532.454 2187.83 529.552C2189.41 528.245 2190.66 526.592 2191.49 524.722C2192.32 522.852 2192.71 520.816 2192.62 518.772H2192.62ZM2567.91 448.473H2554.81V414.72C2554.81 403.396 2551.04 397.916 2543.26 397.916C2541.59 397.859 2539.92 398.205 2538.41 398.925C2536.89 399.645 2535.57 400.717 2534.56 402.052C2532.33 404.747 2531.13 408.141 2531.16 411.635V448.472H2518.16V412.797C2518.31 408.961 2517.28 405.172 2515.19 401.945C2514.28 400.625 2513.03 399.561 2511.59 398.856C2510.14 398.151 2508.54 397.827 2506.93 397.916C2505.19 397.877 2503.46 398.26 2501.9 399.031C2500.34 399.803 2498.99 400.939 2497.97 402.344C2495.79 405.257 2494.7 408.84 2494.89 412.47V448.472H2482.06V405.429C2482.06 400.13 2481.97 394.323 2481.64 388.153H2493.15L2493.82 397.082H2494.24C2495.81 393.835 2498.32 391.129 2501.44 389.312C2504.57 387.494 2508.16 386.649 2511.77 386.883C2515.43 386.634 2519.06 387.61 2522.1 389.655C2525.14 391.699 2527.4 394.697 2528.54 398.171H2528.7C2530.5 395.135 2532.93 392.512 2535.82 390.476C2539.51 388.087 2543.82 386.837 2548.22 386.883C2550.69 386.824 2553.14 387.289 2555.42 388.246C2557.7 389.203 2559.75 390.632 2561.43 392.437C2566.16 398.072 2568.49 405.328 2567.91 412.652V448.473L2567.91 448.473ZM2468.36 448.22H2456.38L2455.41 437.95H2455.23C2453.26 441.257 2450.42 443.962 2447.02 445.773C2443.61 447.583 2439.78 448.43 2435.93 448.22C2429.9 448.22 2414.24 447.07 2414.77 422.774V388.153H2428.84V420.444C2428.84 431.774 2432.87 437.278 2440.82 437.278C2442.62 437.446 2444.42 437.218 2446.11 436.608C2447.81 435.998 2449.34 435.022 2450.61 433.75C2451.88 432.478 2452.85 430.941 2453.45 429.251C2454.06 427.561 2454.27 425.759 2454.1 423.974V388.153H2467.57V430.045C2467.57 435.478 2468.36 448.219 2468.36 448.219L2468.36 448.22ZM2402.1 369.861C2402.14 370.924 2401.94 371.982 2401.54 372.965C2401.13 373.948 2400.51 374.832 2399.74 375.561C2398.07 377.141 2395.85 378.002 2393.55 377.956C2392.5 377.94 2391.46 377.717 2390.5 377.301C2389.53 376.886 2388.66 376.285 2387.93 375.533C2387.2 374.781 2386.63 373.893 2386.24 372.92C2385.85 371.947 2385.66 370.908 2385.68 369.861C2385.66 368.793 2385.86 367.732 2386.26 366.741C2386.66 365.75 2387.26 364.849 2388.01 364.091C2389.61 362.629 2391.71 361.836 2393.87 361.877C2396.04 361.852 2398.13 362.643 2399.74 364.091C2401.25 365.632 2402.1 367.704 2402.1 369.861H2402.1ZM2400.54 448.473H2387.07V388.154H2400.54V448.473ZM2370.44 448.473H2357.26V414.72C2357.26 403.396 2353.5 397.916 2346.49 397.916C2344.94 397.967 2343.42 398.366 2342.05 399.082C2340.67 399.798 2339.48 400.813 2338.55 402.052C2336.42 404.795 2335.28 408.168 2335.29 411.635V448.472H2322.29V412.797C2322.45 408.961 2321.41 405.172 2319.32 401.945C2318.43 400.61 2317.19 399.536 2315.74 398.828C2314.3 398.121 2312.69 397.807 2311.08 397.916C2309.33 397.865 2307.6 398.243 2306.04 399.015C2304.47 399.787 2303.12 400.93 2302.1 402.344C2299.73 405.187 2298.44 408.773 2298.46 412.47V448.472H2285.46V405.429C2285.46 400.13 2285.19 394.323 2285.06 388.153H2296.37L2297.17 397.082H2297.5C2299.33 393.861 2302.01 391.205 2305.25 389.406C2308.5 387.606 2312.18 386.733 2315.89 386.883C2319.54 386.64 2323.16 387.618 2326.19 389.663C2329.23 391.708 2331.48 394.702 2332.61 398.171H2332.76C2334.55 395.088 2337.03 392.456 2340.01 390.476C2343.08 388.171 2346.82 386.911 2350.68 386.883C2353.17 386.82 2355.64 387.282 2357.94 388.239C2360.24 389.196 2362.31 390.627 2364.02 392.437C2368.72 398.084 2371.03 405.337 2370.44 412.652V448.473L2370.44 448.473ZM2269.92 396.134C2267.64 393.047 2264.64 390.569 2261.17 388.924C2257.7 387.278 2253.87 386.515 2250.04 386.703C2246.01 386.556 2242.01 387.334 2238.33 388.975C2234.66 390.617 2231.41 393.078 2228.85 396.17C2223.73 402.431 2221.06 410.33 2221.35 418.402C2221.03 422.423 2221.59 426.466 2223 430.249C2224.41 434.031 2226.63 437.461 2229.5 440.3C2232.38 443.139 2235.84 445.319 2239.65 446.687C2243.46 448.054 2247.52 448.577 2251.55 448.22C2258.45 448.376 2265.32 447.171 2271.76 444.674L2269.79 435.492C2264.53 437.392 2258.96 438.317 2253.37 438.222C2248.61 438.452 2243.93 436.995 2240.15 434.109C2238.21 432.477 2236.66 430.426 2235.62 428.111C2234.58 425.796 2234.08 423.276 2234.16 420.742H2274.7C2275.12 418.785 2275.31 416.784 2275.25 414.783C2275.41 408.171 2273.55 401.666 2269.92 396.134V396.134ZM2234.16 411.926C2234.47 408.146 2235.85 404.531 2238.15 401.509C2239.36 399.781 2240.98 398.373 2242.86 397.406C2244.74 396.438 2246.83 395.941 2248.94 395.956C2251.08 395.864 2253.21 396.34 2255.1 397.335C2257 398.329 2258.59 399.808 2259.72 401.619C2261.62 404.714 2262.55 408.303 2262.38 411.925L2234.16 411.926ZM2215.83 399.95C2214.71 399.68 2213.56 399.558 2212.41 399.586C2210.23 399.523 2208.07 399.978 2206.1 400.912C2204.14 401.846 2202.42 403.233 2201.1 404.958C2198.71 408.446 2197.51 412.605 2197.66 416.826V448.473H2184.14V407.062C2184.14 400.201 2183.97 393.85 2183.68 388.153H2195.44L2195.91 399.622H2196.41C2197.59 395.812 2200.01 392.496 2203.27 390.186C2206.13 388.069 2209.59 386.913 2213.15 386.882C2214.06 386.887 2214.95 386.996 2215.83 387.209V399.949V399.95ZM2174.87 389.061C2175.06 392.442 2174.56 395.827 2173.38 399.006C2172.21 402.184 2170.39 405.087 2168.04 407.535C2164.64 410.756 2160.6 413.23 2156.18 414.799C2151.75 416.368 2147.05 416.996 2142.37 416.644C2139.83 416.661 2137.29 416.504 2134.76 416.172V448.474H2122.64V365.905C2129.36 364.456 2136.23 363.835 2143.1 364.054C2151.66 363.405 2160.17 365.825 2167.1 370.878C2169.69 373.125 2171.73 375.929 2173.08 379.078C2174.42 382.228 2175.04 385.641 2174.87 389.06L2174.87 389.061ZM2161.64 389.894C2161.75 387.749 2161.38 385.604 2160.56 383.62C2159.73 381.635 2158.47 379.86 2156.86 378.427C2153.11 375.549 2148.42 374.153 2143.69 374.506C2140.7 374.418 2137.7 374.662 2134.76 375.233V405.429C2137.3 405.973 2139.89 406.216 2142.48 406.154C2147.51 406.442 2152.48 404.908 2156.46 401.835C2158.17 400.362 2159.53 398.522 2160.42 396.455C2161.32 394.387 2161.73 392.144 2161.64 389.894" fill="white"/>
<path d="M2385.68 46.9847C2396.66 34.145 2402.1 17.4971 2400.81 0.674805C2392.6 1.35355 2384.61 3.66173 2377.31 7.46358C2370.01 11.2654 2363.55 16.4842 2358.3 22.8128C2353 28.8603 2349.02 35.9356 2346.59 43.5934C2344.17 51.2513 2343.37 59.3259 2344.23 67.3092C2352.23 67.2901 2360.13 65.4492 2367.31 61.9269C2374.5 58.4047 2380.78 53.294 2385.68 46.9846" fill="white"/>
<path d="M2460.96 210.268C2456.43 224.872 2449.87 238.769 2441.46 251.551C2429.08 269.462 2416.08 286.6 2396.84 287.11C2377.07 287.292 2370.75 275.994 2348.65 275.994C2328.06 275.994 2321.09 286.6 2302.83 287.292C2283.86 288.089 2269.57 268.845 2257.06 250.861C2232.34 214.823 2213.48 150.329 2238.71 107.649C2244.71 96.9586 2253.41 88.0138 2263.94 81.6971C2274.48 75.3803 2286.48 71.9097 2298.77 71.6278C2317.5 71.0296 2335.05 83.9845 2346.04 83.9845C2356.57 83.9845 2377.65 68.3978 2400.61 70.7024C2411.03 71.0952 2421.23 73.8939 2430.38 78.8784C2439.54 83.8629 2447.41 90.8973 2453.38 99.4284C2444.05 104.94 2436.27 112.712 2430.76 122.024C2425.25 131.335 2422.19 141.883 2421.87 152.688C2421.86 165.081 2425.58 177.192 2432.55 187.456C2439.52 197.72 2449.41 205.667 2460.96 210.268Z" fill="white"/>
<path d="M1946.9 0.674927H1923.72V580.114H1946.9V0.674927Z" fill="white"/>
</svg>
