<svg width="101" height="64" viewBox="0 0 101 64" fill="none" xmlns="http://www.w3.org/2000/svg">
<g clip-path="url(#clip0_341_640)">
<path d="M76.3023 28.2388C75.3283 24.309 73.6861 20.6313 71.2828 16.9948C71.0566 16.6522 70.8304 16.3234 70.6042 16C70.9741 16.8112 71.2855 17.636 71.533 18.4691C72.3235 21.1356 72.3048 23.8787 71.4771 26.6192C70.7346 29.0773 69.332 31.678 67.1948 34.5719C65.2227 37.2383 63.0243 39.6417 61.329 41.4394C60.0248 42.8233 58.8591 44.0099 57.8318 45.0595C57.4752 45.424 57.1398 45.7638 56.8337 46.0817C55.9768 46.9614 55.3753 47.5972 55 48C55.9235 47.915 57.3128 47.7314 58.9789 47.3423C60.975 46.8737 66.1036 45.5117 70.5855 43.0426C72.4592 42.0094 73.7979 40.9927 74.7986 39.839C75.8951 38.5784 76.5632 37.1342 76.84 35.4269C77.17 33.4264 76.989 31.0093 76.3023 28.2388Z" fill="#EAEAEA"/>
<path d="M56.6165 44.4937C57.6709 43.467 58.8649 42.3028 60.2014 40.9499C61.9268 39.2036 64.1615 36.8698 66.1553 34.2908C68.2805 31.542 69.6663 29.0869 70.3948 26.7882C71.1835 24.2954 71.1999 21.8026 70.4523 19.3799C69.4937 16.2834 67.552 13.319 64.8298 10.6834C64.0575 9.93689 63.2249 9.21735 62.3321 8.52745C61.8419 8.14747 61.3325 7.77826 60.8094 7.41984C59.2648 6.36344 57.5778 5.39596 55.762 4.53629C55.3512 4.34225 54.9568 4.16708 54.5707 4C55.7374 4.87315 56.7616 5.8514 57.6079 6.91859C57.6928 7.02639 57.7749 7.13688 57.8571 7.24467C57.9721 7.39828 58.0844 7.55459 58.1912 7.71359C58.298 7.86989 58.4021 8.03159 58.5062 8.19328C59.8153 10.2818 60.604 12.7396 60.8039 15.3941C61.0285 18.4016 60.5903 21.7999 59.4236 26.0848C58.6951 28.7582 57.827 31.3129 56.9835 33.7815C56.6685 34.7058 56.3618 35.6059 56.0742 36.4845C55.0281 39.6537 54.3954 42.0521 54.1435 43.82C53.9353 45.2914 53.9901 46.3505 54.0805 47C54.4584 46.6173 54.9541 46.1215 55.5922 45.4962C55.9017 45.1863 56.2468 44.8522 56.6165 44.4937Z" fill="#EAEAEA"/>
<path d="M55.3625 35.6626C55.6469 34.7834 55.9473 33.8773 56.2558 32.9496C57.0739 30.4928 57.9216 27.9497 58.6271 25.3069C59.7403 21.1349 60.1588 17.8448 59.9469 14.9538C59.7537 12.3433 58.9705 9.93774 57.6695 7.93132C57.5729 7.78299 57.4763 7.63736 57.3744 7.49443C57.2724 7.3515 57.1705 7.21127 57.0632 7.07103C57.0525 7.05755 57.0418 7.04407 57.031 7.03058C55.4296 4.97292 53.1334 3.24696 50.3892 2.03879C50.1612 1.93901 49.9278 1.84462 49.6945 1.75293C48.8763 1.42661 48.026 1.14614 47.1461 0.908825C46.5855 0.757803 46.0168 0.622963 45.4347 0.509697C44.3644 0.302043 43.2565 0.153717 42.1138 0.072813C41.4405 0.0242704 40.845 0 40.3246 0C40.2119 0 40.1046 0.00269636 40 0.00269636C40.9281 0.469244 41.7892 1.07872 42.5698 1.82304C42.6261 1.87698 42.6825 1.93631 42.7388 1.99294C42.8595 2.1116 42.9775 2.23565 43.0929 2.3624C43.2082 2.48915 43.3236 2.6186 43.4389 2.75344C44.7131 4.27175 45.762 6.2566 46.497 8.57585C47.3822 11.3751 47.9267 14.881 48.2111 19.6139C48.2996 21.1025 48.3613 22.6101 48.4176 24.0906C48.4337 24.5356 48.4498 24.9805 48.4659 25.4201C48.4766 25.6979 48.4847 25.9676 48.4954 26.24C48.5276 27.1515 48.5625 28.0468 48.6027 28.9233C48.6483 29.94 48.7019 30.9378 48.7717 31.9221C49.0399 35.7489 49.5469 38.9096 50.2766 41.3178C51.0411 43.8339 52.0443 45.4925 52.5754 46.2611C52.6586 46.3797 52.7364 46.4903 52.8115 46.5928C53.0315 46.7438 53.238 46.8813 53.4204 47C53.297 46.3312 53.1656 45.0448 53.4258 43.1759C53.6913 41.3232 54.3029 38.9365 55.3625 35.6626Z" fill="#EAEAEA"/>
<path d="M50.3017 45.7906C50.2505 45.6953 50.202 45.5999 50.1508 45.4992C50.0079 45.2159 49.865 44.9081 49.7221 44.5839C49.4067 43.8676 49.0966 43.0531 48.8163 42.1243C48.1045 39.7655 47.6004 36.7311 47.3119 33.1029C47.293 32.8714 47.2768 32.6399 47.2607 32.4029C47.1879 31.3706 47.134 30.3246 47.0854 29.2596C47.0342 28.1319 46.9938 26.9824 46.9533 25.7976C46.8859 23.8827 46.8158 21.9025 46.6999 19.9576C46.4195 15.2672 45.8884 11.8052 45.0257 9.06224C44.3652 6.97033 43.4485 5.17531 42.3432 3.77798C42.2273 3.63089 42.1086 3.48925 41.99 3.35306C41.8687 3.21414 41.7474 3.08067 41.6207 2.95265C41.5317 2.86276 41.4427 2.77288 41.3538 2.68571C40.2295 1.60979 38.9274 0.847117 37.485 0.414025C37.4527 0.40313 37.4203 0.392235 37.3853 0.381339C37.175 0.321415 36.9809 0.277833 36.7949 0.239699C36.5603 0.193394 36.3446 0.157984 36.1532 0.128021C36.1209 0.122574 36.0858 0.117126 36.0561 0.114402C35.8054 0.0789921 35.5978 0.0463054 35.4145 0C35.3929 0.0190669 35.3687 0.0408582 35.3417 0.0653728C34.5033 0.798088 33.7403 1.68606 33.0582 2.71568C31.8235 4.58151 30.8799 6.97033 30.4081 9.44086C29.7907 12.6768 29.8743 16.3295 30.6561 19.9985C32.5217 28.7502 38.3963 36.6821 43.2706 41.19C44.9286 42.7208 46.5166 43.9765 47.9185 44.9789C48.0749 45.0906 48.2312 45.2023 48.3849 45.3085C49.129 45.8287 49.8111 46.2727 50.4123 46.6432C50.4338 46.6568 50.4581 46.6704 50.4797 46.684C50.6603 46.7957 50.8355 46.9019 51 47C50.9326 46.8938 50.8625 46.7794 50.7924 46.6622C50.6307 46.398 50.4689 46.1066 50.3017 45.7906Z" fill="#EAEAEA"/>
<path d="M0 64V50H2.24614L9.61909 59.6835V50H12V64H9.97286L2.3781 54.0424V64H0Z" fill="#EAEAEA"/>
<path d="M19 64L24.91 50H27.1009L33 64H30.5078L29.1495 60.646H22.7985L21.4128 64H19ZM23.6639 58.4856H28.2895L25.9671 52.9202L23.6639 58.4856Z" fill="#EAEAEA"/>
<path d="M41 64V50H46.0986C47.6001 50 48.7912 50.4282 49.6747 51.2847C50.5582 52.1411 51 53.2859 51 54.7247C51 55.7467 50.7633 56.626 50.2927 57.3626C49.822 58.0991 49.2014 58.6444 48.4362 58.9984C47.671 59.3524 46.8033 59.5294 45.8357 59.5294H43.2666V64H41ZM43.264 57.2855H45.8988C46.7428 57.2855 47.4186 57.0542 47.9209 56.5889C48.4231 56.1236 48.6755 55.5098 48.6755 54.7475C48.6755 53.9396 48.4283 53.323 47.934 52.8919C47.4397 52.4637 46.7612 52.2467 45.8961 52.2467H43.2614V57.2855H43.264Z" fill="#EAEAEA"/>
<path d="M59 57.0055C59 56.0611 59.1748 55.1609 59.5243 54.3077C59.8738 53.4544 60.3517 52.7116 60.9633 52.0765C61.5723 51.4442 62.3177 50.9389 63.1943 50.5633C64.0735 50.1878 65.0129 50 66.015 50C67.0226 50 67.9647 50.185 68.8358 50.5523C69.7068 50.9223 70.4468 51.4193 71.0531 52.0489C71.6593 52.6785 72.1371 53.4213 72.4812 54.2801C72.8252 55.1361 73 56.0446 73 57C73 57.9444 72.8252 58.8446 72.4784 59.6978C72.1289 60.5538 71.6511 61.2966 71.0394 61.929C70.4305 62.5613 69.685 63.0639 68.803 63.4394C67.921 63.815 66.9817 64 65.9795 64C64.6415 64 63.4373 63.6852 62.3669 63.0529C61.2965 62.4205 60.4691 61.5728 59.882 60.5097C59.2949 59.4521 59 58.284 59 57.0055ZM61.4658 57.0055C61.4658 57.8836 61.6569 58.6899 62.0392 59.4245C62.4215 60.159 62.9649 60.7471 63.6639 61.1807C64.363 61.617 65.1467 61.8351 66.0123 61.8351C66.8779 61.8351 67.6561 61.6197 68.3524 61.1862C69.046 60.7527 69.584 60.1728 69.9635 59.4383C70.3431 58.7065 70.5342 57.8947 70.5342 57.0028C70.5342 56.1247 70.3404 55.3183 69.9553 54.5838C69.5703 53.8493 69.0269 53.2611 68.3251 52.8276C67.6261 52.3913 66.8424 52.1732 65.9768 52.1732C65.1112 52.1732 64.3302 52.3886 63.6366 52.8221C62.943 53.2556 62.4078 53.8383 62.031 54.57C61.6542 55.3045 61.4658 56.1164 61.4658 57.0055Z" fill="#EAEAEA"/>
<path d="M81 64V50H83.2552V61.7533H90V64H81Z" fill="#EAEAEA"/>
<path d="M99 64V50H101V64H99Z" fill="#EAEAEA"/>
<path d="M76.3023 28.2388C75.3283 24.309 73.6861 20.6313 71.2828 16.9948C71.0566 16.6522 70.8304 16.3234 70.6042 16C70.9741 16.8112 71.2855 17.636 71.533 18.4691C72.3235 21.1356 72.3048 23.8787 71.4771 26.6192C70.7346 29.0773 69.332 31.678 67.1948 34.5719C65.2227 37.2383 63.0243 39.6417 61.329 41.4394C60.0248 42.8233 58.8591 44.0099 57.8318 45.0595C57.4752 45.424 57.1398 45.7638 56.8337 46.0817C55.9768 46.9614 55.3753 47.5972 55 48C55.9235 47.915 57.3128 47.7314 58.9789 47.3423C60.975 46.8737 66.1036 45.5117 70.5855 43.0426C72.4592 42.0094 73.7979 40.9927 74.7986 39.839C75.8951 38.5784 76.5632 37.1342 76.84 35.4269C77.17 33.4264 76.989 31.0093 76.3023 28.2388Z" fill="#EAEAEA"/>
<path d="M56.6165 44.4937C57.6709 43.467 58.8649 42.3028 60.2014 40.9499C61.9268 39.2036 64.1615 36.8698 66.1553 34.2908C68.2805 31.542 69.6663 29.0869 70.3948 26.7882C71.1835 24.2954 71.1999 21.8026 70.4523 19.3799C69.4937 16.2834 67.552 13.319 64.8298 10.6834C64.0575 9.93689 63.2249 9.21735 62.3321 8.52745C61.8419 8.14747 61.3325 7.77826 60.8094 7.41984C59.2648 6.36344 57.5778 5.39596 55.762 4.53629C55.3512 4.34225 54.9568 4.16708 54.5707 4C55.7374 4.87315 56.7616 5.8514 57.6079 6.91859C57.6928 7.02639 57.7749 7.13688 57.8571 7.24467C57.9721 7.39828 58.0844 7.55459 58.1912 7.71359C58.298 7.86989 58.4021 8.03159 58.5062 8.19328C59.8153 10.2818 60.604 12.7396 60.8039 15.3941C61.0285 18.4016 60.5903 21.7999 59.4236 26.0848C58.6951 28.7582 57.827 31.3129 56.9835 33.7815C56.6685 34.7058 56.3618 35.6059 56.0742 36.4845C55.0281 39.6537 54.3954 42.0521 54.1435 43.82C53.9353 45.2914 53.9901 46.3505 54.0805 47C54.4584 46.6173 54.9541 46.1215 55.5922 45.4962C55.9017 45.1863 56.2468 44.8522 56.6165 44.4937Z" fill="#EAEAEA"/>
<path d="M55.3625 35.6626C55.6469 34.7834 55.9473 33.8773 56.2558 32.9496C57.0739 30.4928 57.9216 27.9497 58.6271 25.3069C59.7403 21.1349 60.1588 17.8448 59.9469 14.9538C59.7537 12.3433 58.9705 9.93774 57.6695 7.93132C57.5729 7.78299 57.4763 7.63736 57.3744 7.49443C57.2724 7.3515 57.1705 7.21127 57.0632 7.07103C57.0525 7.05755 57.0418 7.04407 57.031 7.03058C55.4296 4.97292 53.1334 3.24696 50.3892 2.03879C50.1612 1.93901 49.9278 1.84462 49.6945 1.75293C48.8763 1.42661 48.026 1.14614 47.1461 0.908825C46.5855 0.757803 46.0168 0.622963 45.4347 0.509697C44.3644 0.302043 43.2565 0.153717 42.1138 0.072813C41.4405 0.0242704 40.845 0 40.3246 0C40.2119 0 40.1046 0.00269636 40 0.00269636C40.9281 0.469244 41.7892 1.07872 42.5698 1.82304C42.6261 1.87698 42.6825 1.93631 42.7388 1.99294C42.8595 2.1116 42.9775 2.23565 43.0929 2.3624C43.2082 2.48915 43.3236 2.6186 43.4389 2.75344C44.7131 4.27175 45.762 6.2566 46.497 8.57585C47.3822 11.3751 47.9267 14.881 48.2111 19.6139C48.2996 21.1025 48.3613 22.6101 48.4176 24.0906C48.4337 24.5356 48.4498 24.9805 48.4659 25.4201C48.4766 25.6979 48.4847 25.9676 48.4954 26.24C48.5276 27.1515 48.5625 28.0468 48.6027 28.9233C48.6483 29.94 48.7019 30.9378 48.7717 31.9221C49.0399 35.7489 49.5469 38.9096 50.2766 41.3178C51.0411 43.8339 52.0443 45.4925 52.5754 46.2611C52.6586 46.3797 52.7364 46.4903 52.8115 46.5928C53.0315 46.7438 53.238 46.8813 53.4204 47C53.297 46.3312 53.1656 45.0448 53.4258 43.1759C53.6913 41.3232 54.3029 38.9365 55.3625 35.6626Z" fill="#EAEAEA"/>
<path d="M50.3017 45.7906C50.2505 45.6953 50.202 45.5999 50.1508 45.4992C50.0079 45.2159 49.865 44.9081 49.7221 44.5839C49.4067 43.8676 49.0966 43.0531 48.8163 42.1243C48.1045 39.7655 47.6004 36.7311 47.3119 33.1029C47.293 32.8714 47.2768 32.6399 47.2607 32.4029C47.1879 31.3706 47.134 30.3246 47.0854 29.2596C47.0342 28.1319 46.9938 26.9824 46.9533 25.7976C46.8859 23.8827 46.8158 21.9025 46.6999 19.9576C46.4195 15.2672 45.8884 11.8052 45.0257 9.06224C44.3652 6.97033 43.4485 5.17531 42.3432 3.77798C42.2273 3.63089 42.1086 3.48925 41.99 3.35306C41.8687 3.21414 41.7474 3.08067 41.6207 2.95265C41.5317 2.86276 41.4427 2.77288 41.3538 2.68571C40.2295 1.60979 38.9274 0.847117 37.485 0.414025C37.4527 0.40313 37.4203 0.392235 37.3853 0.381339C37.175 0.321415 36.9809 0.277833 36.7949 0.239699C36.5603 0.193394 36.3446 0.157984 36.1532 0.128021C36.1209 0.122574 36.0858 0.117126 36.0561 0.114402C35.8054 0.0789921 35.5978 0.0463054 35.4145 0C35.3929 0.0190669 35.3687 0.0408582 35.3417 0.0653728C34.5033 0.798088 33.7403 1.68606 33.0582 2.71568C31.8235 4.58151 30.8799 6.97033 30.4081 9.44086C29.7907 12.6768 29.8743 16.3295 30.6561 19.9985C32.5217 28.7502 38.3963 36.6821 43.2706 41.19C44.9286 42.7208 46.5166 43.9765 47.9185 44.9789C48.0749 45.0906 48.2312 45.2023 48.3849 45.3085C49.129 45.8287 49.8111 46.2727 50.4123 46.6432C50.4338 46.6568 50.4581 46.6704 50.4797 46.684C50.6603 46.7957 50.8355 46.9019 51 47C50.9326 46.8938 50.8625 46.7794 50.7924 46.6622C50.6307 46.398 50.4689 46.1066 50.3017 45.7906Z" fill="#EAEAEA"/>
<path d="M0 64V50H2.24614L9.61909 59.6835V50H12V64H9.97286L2.3781 54.0424V64H0Z" fill="#EAEAEA"/>
<path d="M19 64L24.91 50H27.1009L33 64H30.5078L29.1495 60.646H22.7985L21.4128 64H19ZM23.6639 58.4856H28.2895L25.9671 52.9202L23.6639 58.4856Z" fill="#EAEAEA"/>
<path d="M41 64V50H46.0986C47.6001 50 48.7912 50.4282 49.6747 51.2847C50.5582 52.1411 51 53.2859 51 54.7247C51 55.7467 50.7633 56.626 50.2927 57.3626C49.822 58.0991 49.2014 58.6444 48.4362 58.9984C47.671 59.3524 46.8033 59.5294 45.8357 59.5294H43.2666V64H41ZM43.264 57.2855H45.8988C46.7428 57.2855 47.4186 57.0542 47.9209 56.5889C48.4231 56.1236 48.6755 55.5098 48.6755 54.7475C48.6755 53.9396 48.4283 53.323 47.934 52.8919C47.4397 52.4637 46.7612 52.2467 45.8961 52.2467H43.2614V57.2855H43.264Z" fill="#EAEAEA"/>
<path d="M59 57.0055C59 56.0611 59.1748 55.1609 59.5243 54.3077C59.8738 53.4544 60.3517 52.7116 60.9633 52.0765C61.5723 51.4442 62.3177 50.9389 63.1943 50.5633C64.0735 50.1878 65.0129 50 66.015 50C67.0226 50 67.9647 50.185 68.8358 50.5523C69.7068 50.9223 70.4468 51.4193 71.0531 52.0489C71.6593 52.6785 72.1371 53.4213 72.4812 54.2801C72.8252 55.1361 73 56.0446 73 57C73 57.9444 72.8252 58.8446 72.4784 59.6978C72.1289 60.5538 71.6511 61.2966 71.0394 61.929C70.4305 62.5613 69.685 63.0639 68.803 63.4394C67.921 63.815 66.9817 64 65.9795 64C64.6415 64 63.4373 63.6852 62.3669 63.0529C61.2965 62.4205 60.4691 61.5728 59.882 60.5097C59.2949 59.4521 59 58.284 59 57.0055ZM61.4658 57.0055C61.4658 57.8836 61.6569 58.6899 62.0392 59.4245C62.4215 60.159 62.9649 60.7471 63.6639 61.1807C64.363 61.617 65.1467 61.8351 66.0123 61.8351C66.8779 61.8351 67.6561 61.6197 68.3524 61.1862C69.046 60.7527 69.584 60.1728 69.9635 59.4383C70.3431 58.7065 70.5342 57.8947 70.5342 57.0028C70.5342 56.1247 70.3404 55.3183 69.9553 54.5838C69.5703 53.8493 69.0269 53.2611 68.3251 52.8276C67.6261 52.3913 66.8424 52.1732 65.9768 52.1732C65.1112 52.1732 64.3302 52.3886 63.6366 52.8221C62.943 53.2556 62.4078 53.8383 62.031 54.57C61.6542 55.3045 61.4658 56.1164 61.4658 57.0055Z" fill="#EAEAEA"/>
<path d="M81 64V50H83.2552V61.7533H90V64H81Z" fill="#EAEAEA"/>
<path d="M99 64V50H101V64H99Z" fill="#EAEAEA"/>
</g>
<defs>
<clipPath id="clip0_341_640">
<rect width="101" height="64" fill="white"/>
</clipPath>
</defs>
</svg>
