<svg width="389" height="101" viewBox="0 0 389 101" fill="none" xmlns="http://www.w3.org/2000/svg">
<g clip-path="url(#clip0_2181_106)">
<path d="M377.277 63.64V72.083H194.156V72.0976H150.1V100.609H388.975V63.64H377.272H377.277ZM176.18 93.7985H173.283V91.6963H164.719V80.4583H167.63V89.221H171.844V80.4583H174.77V89.221H176.18V93.7937V93.7985ZM180.743 91.6963H177.817V80.4583H180.743V91.6963ZM193.134 91.6963H190.222V87.0557H186.008V91.6963H183.097V80.4583H186.008V84.7936H190.222V80.4583H193.134V91.6963ZM255.102 76.8011C255.248 77.4647 255.689 77.7989 256.42 77.7989C257.151 77.7989 257.592 77.4647 257.738 76.8011H259.641C259.603 77.6003 259.283 78.2397 258.711 78.7047C258.164 79.1698 257.408 79.3974 256.425 79.3974C255.442 79.3974 254.71 79.1698 254.124 78.7047C253.577 78.2542 253.271 77.6148 253.218 76.8011H255.107H255.102ZM206.711 91.6963H203.786V84.8372L198.414 91.6963H195.488V80.4583H198.414V87.3464L203.786 80.4583H206.711V91.6963ZM230.234 93.7985H227.337V91.6963H214.118V80.4583H217.043V89.221H220.022V80.4583H222.919V89.221H225.898V80.4583H228.824V89.221H230.234V93.7937V93.7985ZM243.346 88.412C243.026 89.129 242.6 89.7538 242.058 90.3012C241.501 90.834 240.847 91.2458 240.077 91.5509C239.321 91.8561 238.483 92.0014 237.577 92.0014C236.671 92.0014 235.833 91.8561 235.063 91.5509C234.307 91.2458 233.653 90.834 233.106 90.3012C232.559 89.7538 232.137 89.129 231.827 88.412C231.522 87.6951 231.362 86.9104 231.362 86.0869C231.362 85.2635 231.522 84.4787 231.827 83.7473C232.132 83.0304 232.559 82.4055 233.106 81.8727C233.653 81.3253 234.303 80.9136 235.063 80.6084C235.833 80.3032 236.657 80.1579 237.577 80.1579C238.497 80.1579 239.321 80.3032 240.077 80.6084C240.847 80.9136 241.501 81.3253 242.058 81.8727C242.605 82.4055 243.026 83.0304 243.346 83.7473C243.651 84.4787 243.797 85.2489 243.797 86.0869C243.797 86.9249 243.651 87.6951 243.346 88.412ZM261.923 91.6963H259.012V84.8372L253.625 91.6963H250.714V80.4583H253.625V87.3464L259.012 80.4583H261.923V91.6963ZM279.395 91.6963H276.469V87.0557H272.255V91.6963H269.344V80.4583H272.255V84.7936H276.469V80.4583H279.395V91.6963ZM288.133 82.9335H284.665V84.8081H287.935V87.2834H284.665V89.2258H288.133V91.7011H281.749V80.4631H288.133V82.9384V82.9335ZM303.387 84.222C302.709 83.3985 301.871 82.9868 300.888 82.9868C300.447 82.9868 300.035 83.0643 299.662 83.2242C299.289 83.384 298.969 83.5971 298.703 83.8636C298.437 84.1445 298.223 84.4642 298.064 84.8469C297.918 85.2199 297.836 85.6316 297.836 86.0579C297.836 86.5084 297.913 86.9201 298.064 87.2931C298.223 87.6806 298.437 87.9955 298.718 88.2764C298.984 88.5574 299.304 88.7802 299.677 88.94C300.035 89.0999 300.432 89.1774 300.859 89.1774C301.803 89.1774 302.641 88.7802 303.387 87.9809V91.4395L303.082 91.5461C302.641 91.7059 302.22 91.8125 301.832 91.89C301.445 91.9675 301.062 91.9966 300.689 91.9966C299.919 91.9966 299.173 91.8513 298.47 91.5558C297.754 91.2651 297.129 90.8486 296.581 90.3206C296.049 89.7877 295.613 89.1629 295.278 88.4314C294.959 87.7 294.799 86.9007 294.799 86.0385C294.799 85.1763 294.959 84.3916 295.278 83.6698C295.598 82.9529 296.034 82.328 296.567 81.8097C297.114 81.2914 297.739 80.8797 298.456 80.5842C299.173 80.2936 299.919 80.1434 300.704 80.1434C301.154 80.1434 301.595 80.1821 302.021 80.2887C302.462 80.3808 302.912 80.5261 303.392 80.7295V84.2123L303.387 84.222ZM315.274 91.6963H312.363V87.0557H308.149V91.6963H305.238V80.4583H308.149V84.7936H312.363V80.4583H315.274V91.6963ZM328.852 91.6963H325.926V84.8372L320.554 91.6963H317.628V80.4583H320.554V87.3464L325.926 80.4583H328.852V91.6963ZM340.739 91.6963H337.828V82.9335H334.461V88.2377C334.461 88.7947 334.369 89.3033 334.209 89.7538C334.035 90.2188 333.798 90.6064 333.478 90.9503C333.158 91.2845 332.771 91.5461 332.32 91.735C331.87 91.9094 331.361 92.0014 330.789 92.0014H330.562V89.4729C330.6 89.4874 330.654 89.4874 330.693 89.4874C331.264 89.4874 331.545 89.0611 331.545 88.1989V80.4583H340.734V91.6963H340.739ZM354.568 88.412C354.249 89.129 353.822 89.7538 353.28 90.3012C352.723 90.834 352.069 91.2458 351.299 91.5509C350.543 91.8561 349.705 92.0014 348.799 92.0014C347.893 92.0014 347.055 91.8561 346.3 91.5509C345.53 91.2458 344.876 90.834 344.333 90.3012C343.786 89.7538 343.364 89.129 343.054 88.412C342.749 87.6951 342.589 86.9104 342.589 86.0869C342.589 85.2635 342.749 84.4787 343.054 83.7473C343.36 83.0304 343.786 82.4055 344.333 81.8727C344.88 81.3253 345.53 80.9136 346.3 80.6084C347.055 80.3032 347.884 80.1579 348.799 80.1579C349.715 80.1579 350.543 80.3032 351.299 80.6084C352.069 80.9136 352.723 81.3253 353.28 81.8727C353.827 82.4055 354.249 83.0304 354.568 83.7473C354.874 84.4787 355.019 85.2489 355.019 86.0869C355.019 86.9249 354.874 87.6951 354.568 88.412ZM364.954 84.222C364.276 83.3985 363.452 82.9868 362.454 82.9868C362.014 82.9868 361.616 83.0643 361.243 83.2242C360.87 83.384 360.551 83.5971 360.284 83.8636C360.003 84.1445 359.805 84.4642 359.645 84.8469C359.485 85.2199 359.417 85.6316 359.417 86.0579C359.417 86.5084 359.485 86.9201 359.645 87.2931C359.805 87.6806 360.018 87.9955 360.284 88.2764C360.565 88.5574 360.885 88.7802 361.243 88.94C361.616 89.0999 362.014 89.1774 362.44 89.1774C363.37 89.1774 364.208 88.7802 364.954 87.9809V91.4395L364.663 91.5461C364.213 91.7059 363.801 91.8125 363.414 91.89C363.026 91.9675 362.643 91.9966 362.27 91.9966C361.486 91.9966 360.74 91.8513 360.037 91.5558C359.335 91.2651 358.705 90.8486 358.163 90.3206C357.615 89.7877 357.194 89.1629 356.86 88.4314C356.525 87.7 356.366 86.9007 356.366 86.0385C356.366 85.1763 356.525 84.3916 356.845 83.6698C357.179 82.9529 357.601 82.328 358.148 81.8097C358.695 81.2914 359.32 80.8797 360.037 80.5842C360.745 80.2936 361.5 80.1434 362.285 80.1434C362.726 80.1434 363.162 80.1821 363.602 80.2887C364.029 80.3808 364.479 80.5261 364.959 80.7295V84.2123L364.954 84.222ZM375.446 89.5019C375.272 89.967 375.02 90.3545 374.7 90.6742C374.366 90.9939 373.954 91.2458 373.474 91.4298C372.98 91.6042 372.423 91.6963 371.784 91.6963H366.799V80.4583H369.711V84.2075H371.89C373.126 84.2075 374.07 84.5126 374.724 85.1521C375.364 85.7915 375.693 86.7215 375.693 87.9712C375.693 88.5283 375.601 89.0466 375.441 89.5019H375.446Z" fill="white"/>
<path d="M372.636 87.9519C372.636 88.8819 372.104 89.3469 371.043 89.3469H369.711V86.5423H371.028C371.6 86.5423 371.997 86.6634 372.254 86.8862C372.52 87.0993 372.641 87.4578 372.641 87.9519H372.636Z" fill="white"/>
<path d="M351.972 86.087C351.972 86.5278 351.88 86.9395 351.72 87.3222C351.546 87.6951 351.323 88.0294 351.027 88.291C350.737 88.5719 350.388 88.7947 350.005 88.94C349.632 89.0999 349.221 89.1774 348.794 89.1774C348.368 89.1774 347.971 89.0999 347.583 88.94C347.196 88.7947 346.867 88.5671 346.571 88.291C346.29 88.0245 346.067 87.6903 345.893 87.3222C345.719 86.9346 345.641 86.5229 345.641 86.087C345.641 85.651 345.719 85.2247 345.893 84.8517C346.067 84.4642 346.29 84.1445 346.571 83.8684C346.862 83.5875 347.196 83.3743 347.583 83.2145C347.971 83.0692 348.368 82.9868 348.794 82.9868C349.221 82.9868 349.632 83.0643 350.005 83.2145C350.393 83.3743 350.737 83.5875 351.027 83.8684C351.318 84.1494 351.546 84.4691 351.72 84.8517C351.88 85.2247 351.972 85.6365 351.972 86.087Z" fill="white"/>
<path d="M240.755 86.087C240.755 86.5278 240.663 86.9395 240.503 87.3222C240.328 87.6951 240.106 88.0294 239.81 88.291C239.519 88.5719 239.171 88.7947 238.788 88.94C238.415 89.0999 238.003 89.1774 237.577 89.1774C237.151 89.1774 236.754 89.0999 236.366 88.94C235.979 88.7947 235.649 88.5671 235.354 88.291C235.073 88.0245 234.835 87.6903 234.675 87.3222C234.501 86.9346 234.424 86.5229 234.424 86.087C234.424 85.651 234.501 85.2247 234.675 84.8517C234.835 84.4642 235.073 84.1445 235.354 83.8684C235.644 83.5875 235.979 83.3743 236.366 83.2145C236.754 83.0692 237.151 82.9868 237.577 82.9868C238.003 82.9868 238.415 83.0643 238.788 83.2145C239.176 83.3743 239.519 83.5875 239.81 83.8684C240.101 84.1494 240.328 84.4691 240.503 84.8517C240.663 85.2247 240.755 85.6365 240.755 86.087Z" fill="white"/>
<path d="M281.192 60.9807C281.696 61.034 282.204 61.0582 282.732 61.0873C283.265 61.0631 283.769 61.034 284.273 60.9807H281.187H281.192Z" fill="white"/>
<path d="M281.192 60.9807C281.696 61.0339 282.204 61.0582 282.732 61.0872C283.265 61.063 283.769 61.0339 284.273 60.9807H281.187H281.192Z" fill="white"/>
<path d="M255.195 8.38977V69.4237H310.924V8.38977H255.195ZM284.278 60.9807C283.774 61.034 283.265 61.0582 282.737 61.0873C282.204 61.063 281.701 61.034 281.197 60.9807C259.084 59.0237 261.288 35.2495 261.661 18.1746H274.226V41.009C274.265 45.6738 278.068 49.452 282.737 49.452C287.407 49.452 291.156 45.7174 291.248 41.1011V18.1746H303.799C304.186 35.2641 306.381 59.0237 284.278 60.9807Z" fill="white"/>
<path d="M284.278 60.9807C283.774 61.034 283.265 61.0582 282.737 61.0873C282.204 61.0631 281.701 61.034 281.197 60.9807H284.283H284.278Z" fill="white"/>
<path d="M57.5899 0L0 20.2235L20.2235 77.8134L66.7644 61.4699V26.1429L57.5899 0ZM19.1869 59.6679V50.3336H43.2711C46.1581 50.3336 47.1802 48.4735 47.1802 46.8653C47.1802 45.8675 46.7927 43.5424 43.1888 43.5424H31.7812C16.0093 43.5424 15.3166 27.1843 22.9507 21.0567C28.4583 15.8979 50.7405 18.8769 57.6722 18.131V27.4653H34.9056C32.1252 27.4653 31.1418 29.2624 31.1418 30.8028C30.9578 39.8561 58.8154 25.8571 59.9295 46.5747C60.4769 65.1901 30.6332 58.5441 19.1869 59.6728V59.6679Z" fill="white"/>
<path d="M69.4285 8.38977V69.4237H127.803V8.38977H69.4285ZM122.058 27.9497H106.378V59.6922H93.4934V27.9497H77.828V18.1746H122.053V27.9497H122.058Z" fill="white"/>
<path d="M130.462 8.4043V69.4382H188.837V8.4043H130.462ZM182.869 21.73L167.761 47.7131V59.7067H154.198V47.7131L139.09 21.73V18.1552H151.03L160.975 36.5719L170.919 18.1552H182.86V21.73H182.869Z" fill="white"/>
<path d="M191.496 8.38977V69.4237H252.53V8.38977H191.496ZM238.279 59.6922H205.767V18.1794H217.959V50.3724H238.279V59.6922Z" fill="white"/>
<path d="M313.584 8.38977V69.4237H374.618V8.38977H313.584ZM324.129 59.6631V50.3288H348.213C351.1 50.3288 352.122 48.4687 352.122 46.8605C352.122 45.8627 351.735 43.5376 348.131 43.5376H336.723C320.951 43.5376 320.259 27.1795 327.907 21.0519C333.4 15.8931 355.687 18.8721 362.614 18.1261V27.4605H339.848C337.067 27.4605 336.084 29.2576 336.084 30.7979C335.9 39.8513 363.767 25.8523 364.872 46.5699C365.419 65.1852 335.575 58.5393 324.129 59.668V59.6631Z" fill="white"/>
</g>
<defs>
<clipPath id="clip0_2181_106">
<rect width="388.98" height="100.609" fill="white"/>
</clipPath>
</defs>
</svg>
