<svg width="224" height="64" viewBox="0 0 224 64" fill="none" xmlns="http://www.w3.org/2000/svg">
<g clip-path="url(#clip0_341_687)">
<path d="M96.7588 16.3235V22.7922C93.6025 20.1516 90.3369 18.8313 86.9619 18.8313C83.2432 18.8313 80.1104 20.1672 77.5635 22.8391C75.001 25.4954 73.7197 28.7454 73.7197 32.5891C73.7197 36.386 75.001 39.5891 77.5635 42.1985C80.126 44.8079 83.2666 46.1125 86.9854 46.1125C88.9072 46.1125 90.54 45.8 91.8838 45.175C92.6338 44.8625 93.4072 44.4407 94.2041 43.9094C95.0166 43.3782 95.8682 42.7375 96.7588 41.9875V48.5735C93.6338 50.3391 90.3525 51.2219 86.915 51.2219C81.7432 51.2219 77.3291 49.4172 73.6729 45.8079C70.0322 42.1672 68.2119 37.7766 68.2119 32.636C68.2119 28.0266 69.7354 23.9172 72.7822 20.3079C76.5322 15.886 81.3838 13.675 87.3369 13.675C90.5869 13.675 93.7275 14.5579 96.7588 16.3235Z" fill="#EAEAEA"/>
<path d="M100.745 10.9797H106.018V29.636C107.893 27.9485 109.964 27.1047 112.229 27.1047C114.808 27.1047 116.87 27.9407 118.417 29.6125C119.729 31.0657 120.386 33.386 120.386 36.5735V50.5657H115.112V37.0657C115.112 35.2375 114.784 33.9172 114.128 33.1047C113.487 32.2766 112.448 31.8625 111.011 31.8625C109.167 31.8625 107.87 32.4329 107.12 33.5735C106.386 34.7297 106.018 36.7141 106.018 39.5266V50.5657H100.745V10.9797Z" fill="#EAEAEA"/>
<path d="M141.997 27.7375H147.294V50.5657H141.997V48.175C139.825 50.2063 137.489 51.2219 134.989 51.2219C131.833 51.2219 129.223 50.0813 127.161 47.8C125.114 45.4719 124.091 42.5657 124.091 39.0813C124.091 35.6594 125.114 32.8079 127.161 30.5266C129.208 28.2454 131.77 27.1047 134.848 27.1047C137.505 27.1047 139.888 28.1985 141.997 30.386V27.7375ZM129.481 39.0813C129.481 41.2688 130.067 43.05 131.239 44.425C132.442 45.8157 133.958 46.511 135.786 46.511C137.739 46.511 139.317 45.8391 140.52 44.4954C141.723 43.1047 142.325 41.3391 142.325 39.1985C142.325 37.0579 141.723 35.2922 140.52 33.9016C139.317 32.5422 137.755 31.8625 135.833 31.8625C134.02 31.8625 132.505 32.55 131.286 33.925C130.083 35.3157 129.481 37.0344 129.481 39.0813Z" fill="#EAEAEA"/>
<path d="M152.03 27.7375H157.327V29.8469C159.171 28.0188 161.249 27.1047 163.561 27.1047C166.218 27.1047 168.288 27.9407 169.772 29.6125C171.053 31.0344 171.694 33.3547 171.694 36.5735V50.5657H166.397V37.8157C166.397 35.5657 166.085 34.011 165.46 33.1516C164.85 32.2766 163.741 31.8391 162.132 31.8391C160.382 31.8391 159.139 32.4172 158.405 33.5735C157.686 34.7141 157.327 36.7063 157.327 39.55V50.5657H152.03V27.7375Z" fill="#EAEAEA"/>
<path d="M198.532 50.0266C198.532 51.1047 198.493 52.05 198.415 52.8625C198.352 53.6907 198.258 54.4172 198.133 55.0422C197.758 56.761 197.024 58.2375 195.93 59.4719C193.868 61.8469 191.032 63.0344 187.423 63.0344C184.376 63.0344 181.868 62.2141 179.899 60.5735C177.868 58.886 176.696 56.55 176.383 53.5657H181.68C181.883 54.6907 182.219 55.5579 182.688 56.1672C183.782 57.5891 185.376 58.3 187.469 58.3C191.329 58.3 193.258 55.9329 193.258 51.1985V48.011C191.165 50.1516 188.751 51.2219 186.016 51.2219C182.907 51.2219 180.36 50.0969 178.376 47.8469C176.376 45.5657 175.376 42.7141 175.376 39.2922C175.376 35.9641 176.305 33.136 178.165 30.8079C180.165 28.3391 182.805 27.1047 186.087 27.1047C188.962 27.1047 191.352 28.175 193.258 30.3157V27.7375H198.532V50.0266ZM193.469 39.1985C193.469 36.9797 192.876 35.2063 191.688 33.8782C190.485 32.5188 188.946 31.8391 187.071 31.8391C185.071 31.8391 183.493 32.5813 182.337 34.0657C181.29 35.3938 180.766 37.1125 180.766 39.2219C180.766 41.3 181.29 43.0032 182.337 44.3313C183.477 45.7844 185.055 46.511 187.071 46.511C189.087 46.511 190.68 45.7766 191.852 44.3079C192.93 42.9797 193.469 41.2766 193.469 39.1985Z" fill="#EAEAEA"/>
<path d="M224.057 40.3938H207.698C207.839 42.2688 208.448 43.761 209.526 44.8704C210.604 45.9641 211.987 46.511 213.674 46.511C214.987 46.511 216.073 46.1985 216.932 45.5735C217.776 44.9485 218.737 43.7922 219.815 42.1047L224.268 44.5891C223.581 45.761 222.854 46.7688 222.089 47.6125C221.323 48.4407 220.503 49.1282 219.628 49.675C218.753 50.2063 217.807 50.5969 216.792 50.8469C215.776 51.0969 214.674 51.2219 213.487 51.2219C210.081 51.2219 207.346 50.1282 205.284 47.9407C203.221 45.7375 202.19 42.8157 202.19 39.175C202.19 35.5657 203.19 32.6438 205.19 30.4094C207.206 28.2063 209.878 27.1047 213.206 27.1047C216.565 27.1047 219.221 28.175 221.174 30.3157C223.112 32.4407 224.081 35.386 224.081 39.1516L224.057 40.3938ZM218.643 36.0813C217.909 33.2688 216.135 31.8625 213.323 31.8625C212.682 31.8625 212.081 31.9641 211.518 32.1672C210.956 32.3547 210.44 32.636 209.971 33.011C209.518 33.3704 209.128 33.8079 208.799 34.3235C208.471 34.8391 208.221 35.425 208.049 36.0813H218.643Z" fill="#EAEAEA"/>
<path d="M17.0078 15.3657H36.2078L26.6078 -0.634277L17.0078 15.3657Z" fill="#EAEAEA"/>
<path fill-rule="evenodd" clip-rule="evenodd" d="M9.408 16.677V14.3735H0V16.677H9.408ZM9.408 18.0238H0V21.4769H9.408V18.0238ZM9.408 22.8238H0V27.8769H9.408V22.8238ZM9.408 29.2238H0V35.3495C0 40.9815 1.296 45.0935 3.888 47.6855C6.48 50.2775 10.448 51.5735 15.792 51.5735C21.136 51.5735 25.088 50.2775 27.648 47.6855C30.24 45.0935 31.536 40.9815 31.536 35.3495V14.3735H22.176V34.0535C22.176 35.1095 22.128 36.1975 22.032 37.3175C21.968 38.4055 21.728 39.3975 21.312 40.2935C20.896 41.1895 20.256 41.9255 19.392 42.5015C18.56 43.0455 17.36 43.3175 15.792 43.3175C14.224 43.3175 13.008 43.0455 12.144 42.5015C11.28 41.9255 10.64 41.1895 10.224 40.2935C9.84 39.3975 9.6 38.4055 9.504 37.3175C9.44 36.1975 9.408 35.1095 9.408 34.0535V29.2238ZM56.1203 36.1655C56.4083 36.8375 56.5523 37.5575 56.5523 38.3255C56.5523 39.0615 56.3923 39.7655 56.0723 40.4375C55.7843 41.1095 55.3843 41.7015 54.8723 42.2135C54.3923 42.7255 53.8163 43.1255 53.1443 43.4135C52.4723 43.7015 51.7523 43.8455 50.9842 43.8455C50.2163 43.8455 49.4802 43.7015 48.7762 43.4135C48.1042 43.0935 47.5122 42.6935 47.0002 42.2135C46.4882 41.7015 46.0882 41.1095 45.8002 40.4375C45.5122 39.7655 45.3682 39.0455 45.3682 38.2775C45.3682 37.5095 45.5122 36.7895 45.8002 36.1175C46.1202 35.4135 46.5202 34.8055 47.0002 34.2935C47.5122 33.7815 48.1042 33.3815 48.7762 33.0935C49.4482 32.8055 50.1682 32.6615 50.9362 32.6615C51.7362 32.6615 52.4723 32.8215 53.1443 33.1415C53.8483 33.4295 54.4562 33.8295 54.9683 34.3415C55.4803 34.8535 55.8643 35.4615 56.1203 36.1655ZM36.9202 62.8535H45.6082V48.1655C47.6562 50.2775 50.2163 51.3335 53.2882 51.3335C55.0483 51.3335 56.6803 50.9975 58.1843 50.3255C59.6883 49.6535 60.9843 48.7255 62.0723 47.5415C63.1923 46.3575 64.0563 44.9815 64.6643 43.4135C65.3043 41.8455 65.6243 40.1495 65.6243 38.3255C65.6243 36.5015 65.3043 34.7895 64.6643 33.1895C64.0563 31.5895 63.1923 30.1975 62.0723 29.0135C60.9523 27.8295 59.6243 26.9015 58.0883 26.2295C56.5843 25.5255 54.9523 25.1735 53.1923 25.1735C49.9923 25.1735 47.4642 26.3415 45.6082 28.6775V25.9415H36.9202V62.8535Z" fill="#EAEAEA"/>
</g>
<defs>
<clipPath id="clip0_341_687">
<rect width="224" height="64" fill="white"/>
</clipPath>
</defs>
</svg>
