<?xml version="1.0" encoding="UTF-8"?>
<svg id="Layer_1" xmlns="http://www.w3.org/2000/svg" version="1.1" viewBox="0 0 198.4 124.4">
  <!-- Generator: Adobe Illustrator 29.3.1, SVG Export Plug-In . SVG Version: 2.1.0 Build 151)  -->
  <defs>
    <style>
      .st0 {
        fill: #eaeaea;
      }
    </style>
  </defs>
  <path class="st0" d="M163.4,32.6L63.3,11.2c-4.4-.9-8.6-.6-11.6.3l-17,5.7c-5.3,1.6-8.5,5.2-9.9,10.5-.3,1.2-.5,2.5-.5,3.7v55.4c0,10.5,8.6,18.8,19.1,18.5l116.7-4c7.8-.3,13.9-6.7,13.9-14.5v-41.1c0-6.4-4.4-11.9-10.6-13.2h0ZM168.9,82.7c0,5.4-2.1,7.1-5.5,7.1-9.7,0-94.4-1.1-102.3-1.1s-3,.1-4.3-1.1c-1.3-1.1-2.3-3.3-2.2-5.7,0-18.9,0-37.9,0-56.8,0-2.7,1.4-4.9,3-5.2,2.5-.3,4.1,0,7.8.8,3.3.7,82.5,16.2,98.1,19.4,3.1.6,5.4,3.3,5.4,6.5h0v36.2h0Z"/>
  <g>
    <path class="st0" d="M103.9,33.7l-16.5,30.1-1.2,20.8-14.2-.2,1.4-21.7-15.8-37.9,16.8,3.2,6.9,20.5,8.8-17.5s13.7,2.6,13.7,2.7Z"/>
    <path class="st0" d="M103.4,82.8c-1.4,1.6-3.1,2.4-5,2.4-2,0-3.6-.9-4.9-2.6-1.3-1.7-1.9-3.8-1.8-6.3.1-2.4.9-4.5,2.4-6.1,1.5-1.6,3.2-2.3,5.2-2.2,1.9.1,3.5,1.1,4.7,2.8,1.2,1.7,1.8,3.7,1.7,6,0,2.3-.8,4.3-2.2,5.9h0Z"/>
    <path class="st0" d="M133.7,81.6c-2.6,3-6,4.5-10.3,4.5-4.4,0-8-1.7-10.8-5-2.8-3.4-4.1-7.8-3.9-13.1l1.4-32.7,10.7,2.1-1.1,29.9c-.1,3.6,1.3,5.4,4.2,5.6,2.8.2,4.3-1.5,4.4-4.9l1-29,9.3,1.8-.9,29.3c-.1,4.8-1.5,8.6-4,11.5h0Z"/>
    <path class="st0" d="M155.8,85.4l-.8-5.4-8.3-.3-1.2,5.6h-9.6c0-.1,11-42.9,11-42.9l9.4,1.8,7.6,41.3h-8.1q0,0,0,0ZM148.7,69.9l4.7.4-2.1-13.1-2.7,12.7h0Z"/>
  </g>
</svg>